{"glyphs":{"0":{"ha":722,"x_min":0,"x_max":0,"o":"m 598 578 b 462 786 568 653 527 735 b 214 798 390 842 291 850 b 130 707 180 775 152 742 b 117 692 124 703 119 699 b 113 676 116 687 114 682 b 99 620 103 658 96 638 b 71 402 84 548 75 475 b 90 114 67 306 70 208 b 207 -108 108 34 139 -55 b 466 -124 281 -164 383 -164 b 616 64 542 -88 590 -14 b 651 321 643 146 655 234 b 598 578 648 408 630 496 z m 523 110 b 419 -62 504 46 474 -23 b 285 -58 372 -95 326 -100 b 200 135 236 -9 213 68 b 224 684 167 316 187 505 b 177 714 229 705 189 713 b 176 714 177 714 176 714 b 251 781 195 742 220 765 b 355 794 282 798 320 807 b 426 737 384 784 408 761 b 516 548 469 683 496 614 b 550 329 537 477 549 403 b 523 110 551 255 543 181 z "},"1":{"ha":576,"x_min":0,"x_max":0,"o":"m 103 594 b 171 707 124 633 147 671 b 247 806 194 742 217 778 b 360 818 277 834 331 860 b 382 716 380 789 381 749 b 347 435 382 621 362 528 b 313 158 332 343 321 251 b 299 -92 306 75 301 -9 b 241 -112 279 -97 260 -103 b 261 -140 217 -124 249 -140 b 299 -139 274 -140 287 -140 b 299 -158 299 -145 299 -151 b 412 -158 300 -201 410 -202 b 413 -123 412 -146 413 -135 b 475 -112 434 -120 455 -115 b 505 -81 489 -109 512 -100 b 452 -64 498 -63 467 -62 b 415 -69 439 -65 427 -67 b 425 163 417 8 420 86 b 457 482 433 270 444 376 b 441 780 468 577 481 690 b 255 846 408 854 327 882 b 157 746 212 825 184 784 b 70 599 125 699 96 650 b 103 594 64 586 97 583 z "},"2":{"ha":699,"x_min":0,"x_max":0,"o":"m 602 -59 b 443 -17 546 -73 490 -44 b 424 -6 437 -13 430 -9 b 460 41 437 9 449 25 b 562 306 516 120 547 212 b 558 601 577 403 580 505 b 409 826 539 687 490 783 b 169 786 329 868 234 846 b 81 517 102 723 44 608 b 173 439 97 478 131 447 b 279 474 212 433 254 443 b 250 484 289 487 257 493 b 151 473 225 454 183 449 b 108 565 124 495 110 531 b 203 774 103 641 148 724 b 313 816 232 802 271 821 b 393 762 347 813 374 789 b 459 557 436 702 452 628 b 380 106 473 406 454 240 b 336 40 367 83 352 61 b 320 46 331 43 325 45 b 97 -24 234 75 152 47 b 102 -120 72 -56 60 -97 b 245 -126 146 -144 199 -139 b 406 -25 307 -109 361 -72 b 620 -77 472 -64 542 -98 b 627 -63 628 -75 632 -69 b 602 -59 622 -56 608 -57 z m 248 -45 b 161 -89 223 -64 193 -84 b 122 -67 143 -91 123 -90 b 150 -16 121 -49 139 -29 b 265 36 179 18 220 40 b 320 21 284 34 302 28 b 248 -45 298 -4 274 -26 z "},"3":{"ha":772,"x_min":0,"x_max":0,"o":"m 438 409 b 509 539 470 449 494 496 b 490 809 539 624 550 735 b 231 855 429 884 315 890 b 71 657 150 821 84 745 b 116 525 64 608 77 557 b 237 502 150 497 196 487 b 220 519 258 510 233 523 b 124 560 183 505 144 529 b 113 678 102 594 102 639 b 255 837 133 748 187 810 b 429 767 326 865 403 842 b 408 559 452 701 432 621 b 344 448 392 519 371 482 b 279 385 326 426 305 400 b 242 368 266 380 254 374 b 237 326 223 359 221 338 b 311 317 258 310 287 311 b 353 335 326 321 340 327 b 542 294 418 355 493 343 b 564 58 603 233 597 131 b 406 -97 533 -10 476 -69 b 293 -109 371 -111 331 -119 b 200 -30 254 -99 214 -69 b 248 117 181 23 212 78 b 383 145 275 146 364 218 b 420 151 387 132 424 135 b 296 188 406 205 337 206 b 167 69 243 165 195 119 b 165 -84 139 17 141 -32 b 314 -169 191 -139 258 -164 b 634 -26 437 -181 560 -124 b 662 302 703 65 734 203 b 438 409 611 373 526 406 z "},"4":{"ha":782,"x_min":0,"x_max":0,"o":"m 299 80 b 418 299 359 137 395 217 b 564 277 470 305 523 301 b 587 58 569 204 577 130 b 608 -55 592 20 599 -18 b 664 -138 616 -92 622 -129 b 707 -124 676 -141 702 -138 b 706 -29 719 -97 709 -58 b 692 81 701 7 697 44 b 674 306 683 156 678 231 b 672 529 671 380 670 455 b 684 755 674 604 682 679 b 578 755 685 797 585 795 b 560 524 564 679 562 601 b 562 306 558 451 559 379 b 423 321 520 322 471 325 b 445 441 433 362 440 403 b 439 674 454 519 454 597 b 356 855 427 740 406 807 b 324 844 346 863 311 856 b 414 540 402 771 414 641 b 383 316 413 466 403 389 b 340 307 368 314 354 311 b 176 233 282 292 226 267 b 70 104 132 203 77 161 b 160 15 63 48 108 14 b 299 80 213 15 262 45 z m 163 185 b 295 267 202 220 247 248 b 376 292 319 277 347 286 b 348 215 368 266 359 240 b 260 86 328 166 300 121 b 123 51 230 58 162 12 b 163 185 81 94 129 156 z "},"5":{"ha":775,"x_min":0,"x_max":0,"o":"m 111 661 b 174 771 87 711 136 750 b 295 800 212 791 253 801 b 266 722 290 774 275 745 b 236 625 254 690 245 657 b 212 527 228 592 220 559 b 215 451 206 501 198 475 b 384 406 249 402 332 415 b 532 339 438 397 491 378 b 551 16 617 258 609 111 b 308 -58 504 -61 391 -107 b 267 131 246 -21 244 71 b 321 209 279 161 296 189 b 409 185 352 233 402 232 b 443 185 411 172 445 173 b 320 239 436 243 366 258 b 213 94 262 215 226 152 b 262 -89 199 30 208 -46 b 458 -131 316 -131 392 -139 b 634 -37 524 -122 590 -88 b 705 163 682 18 703 91 b 638 357 707 234 687 304 b 442 458 586 413 514 442 b 312 473 400 468 354 472 b 308 474 313 473 310 473 b 308 474 308 474 308 474 b 305 497 305 481 305 488 b 314 560 307 518 311 539 b 335 694 321 604 328 649 b 342 761 338 716 341 738 b 337 797 342 774 340 786 b 611 784 429 785 520 751 b 592 803 635 793 607 809 b 416 806 534 782 474 794 b 331 820 388 812 360 817 b 330 826 331 822 330 824 b 296 824 327 837 295 836 b 296 822 296 823 296 823 b 255 820 283 822 269 822 b 78 656 187 811 31 751 b 111 661 84 645 117 648 z "},"6":{"ha":606,"x_min":0,"x_max":0,"o":"m 480 834 b 319 698 414 808 363 752 b 197 522 274 644 233 583 b 109 330 162 461 131 397 b 70 115 86 262 67 187 b 143 -69 72 47 94 -20 b 328 -134 191 -116 261 -141 b 455 135 461 -121 506 25 b 200 247 410 232 297 279 b 313 516 222 342 264 432 b 419 673 345 571 380 623 b 476 741 437 697 456 719 b 534 810 497 763 520 783 b 480 834 548 835 492 838 z m 420 116 b 411 -35 438 68 437 10 b 283 -88 387 -78 331 -109 b 189 192 181 -43 175 100 b 193 216 190 200 192 208 b 420 116 281 265 386 208 z "},"7":{"ha":636,"x_min":0,"x_max":0,"o":"m 538 308 b 493 308 524 303 508 304 b 513 469 502 361 510 415 b 473 737 518 555 518 661 b 281 814 432 805 358 835 b 71 664 196 792 121 735 b 106 656 62 652 99 646 b 273 785 149 712 206 759 b 383 772 313 800 351 805 b 420 676 407 746 416 710 b 407 434 429 596 418 512 b 387 324 401 397 395 361 b 385 324 386 324 386 324 b 327 310 365 323 345 319 b 294 273 314 303 291 290 b 329 273 296 259 331 259 b 383 302 328 291 366 300 b 360 194 376 266 368 230 b 331 61 349 150 340 106 b 309 -81 321 15 309 -34 b 417 -90 309 -121 407 -124 b 442 52 429 -43 433 5 b 470 190 451 98 461 144 b 489 286 476 222 483 254 b 558 289 512 282 535 280 b 538 308 581 298 553 314 z "},"8":{"ha":556,"x_min":0,"x_max":0,"o":"m 391 282 b 453 499 418 352 440 425 b 464 636 461 544 465 590 b 442 759 464 678 461 722 b 242 821 404 834 316 849 b 93 646 166 791 107 727 b 204 357 74 534 134 442 b 172 321 192 346 182 333 b 107 216 146 289 124 254 b 86 -38 71 138 54 44 b 242 -166 112 -104 171 -157 b 440 -85 314 -176 394 -141 b 468 151 496 -19 497 73 b 391 282 450 199 423 242 z m 303 794 b 413 724 357 819 398 772 b 421 561 429 673 426 614 b 363 317 413 477 391 396 b 316 373 348 336 332 354 b 202 608 260 440 208 518 b 303 794 196 685 231 762 z m 391 -39 b 220 -136 370 -114 297 -168 b 111 102 127 -98 98 11 b 161 245 118 152 136 201 b 200 304 172 266 185 285 b 222 331 207 313 214 322 b 224 333 222 331 223 332 b 329 203 261 288 300 246 b 391 -39 376 134 414 44 z "},"9":{"ha":704,"x_min":0,"x_max":0,"o":"m 534 682 b 404 769 507 731 466 784 b 400 768 403 769 402 768 b 220 707 340 787 266 741 b 77 504 153 657 100 585 b 90 381 66 464 64 417 b 180 333 110 352 145 337 b 380 455 268 325 335 386 b 438 595 407 498 426 546 b 448 647 442 613 445 630 b 450 641 449 645 449 643 b 484 521 464 602 475 561 b 520 264 503 436 516 350 b 481 17 523 180 517 94 b 349 -102 459 -30 411 -116 b 257 111 254 -81 234 30 b 217 117 262 128 222 131 b 269 -122 190 36 198 -66 b 534 -86 352 -188 467 -159 b 634 194 604 -10 630 94 b 594 520 638 303 622 415 b 534 682 579 575 561 632 z m 401 638 b 375 531 398 601 389 565 b 241 366 350 467 306 396 b 148 373 212 352 175 352 b 119 466 119 395 114 433 b 206 646 127 532 163 597 b 289 716 230 673 258 697 b 387 747 316 733 355 757 b 388 746 387 747 387 746 b 402 693 394 728 401 711 b 401 638 403 674 402 656 z "},"\u0000":{"ha":0,"x_min":0,"x_max":0,"o":""},"\n":{"ha":0,"x_min":0,"x_max":0,"o":""},"\r":{"ha":0,"x_min":0,"x_max":0,"o":""}," ":{"ha":531,"x_min":0,"x_max":0,"o":""},"!":{"ha":250,"x_min":0,"x_max":0,"o":"m 176 458 b 173 665 175 527 175 596 b 139 862 171 728 172 806 b 89 859 131 878 93 878 b 86 760 83 827 86 792 b 81 660 85 727 83 694 b 72 453 77 591 73 522 b 80 32 69 313 66 172 b 178 32 84 -6 177 -7 b 176 458 183 174 177 316 z m 142 -50 b 109 -50 133 -45 118 -43 b 93 -94 92 -62 93 -74 b 93 -149 93 -112 93 -131 b 171 -149 92 -180 171 -180 b 142 -50 172 -119 174 -65 z "},"\"":{"ha":393,"x_min":0,"x_max":0,"o":"m 201 874 b 159 880 199 889 167 891 b 113 792 139 854 126 822 b 71 699 99 761 85 730 b 147 687 57 668 135 660 b 184 781 161 717 173 749 b 201 874 193 810 204 843 z m 324 855 b 283 861 322 870 291 871 b 238 776 263 836 251 805 b 201 685 225 746 212 716 b 278 673 189 652 267 645 b 308 765 290 703 300 734 b 324 855 316 793 327 826 z "},"#":{"ha":632,"x_min":0,"x_max":0,"o":"m 545 471 b 473 470 521 471 497 471 b 502 633 483 524 493 579 b 521 750 509 672 515 711 b 529 872 527 789 534 832 b 492 874 528 886 498 885 b 417 640 453 804 437 717 b 375 465 403 581 388 523 b 323 460 357 463 340 462 b 365 631 337 517 351 574 b 390 749 374 670 383 709 b 401 812 394 769 399 791 b 391 866 402 831 397 848 b 357 866 388 876 360 876 b 332 808 351 846 340 828 b 310 750 325 789 317 770 b 270 627 296 710 283 668 b 217 445 252 567 234 506 b 118 426 183 440 150 433 b 128 406 93 421 109 402 b 210 421 155 412 182 417 b 200 389 207 410 204 399 b 184 329 195 369 189 349 b 93 314 153 325 123 320 b 102 294 68 309 84 291 b 177 304 127 297 152 301 b 134 150 162 253 148 201 b 70 -98 111 69 81 -14 b 114 -126 67 -118 101 -125 b 170 -106 131 -128 162 -125 b 240 142 202 -27 218 60 b 286 318 255 201 271 259 b 342 323 305 320 323 321 b 258 -74 312 191 283 59 b 310 -104 254 -97 296 -104 b 363 -74 332 -104 358 -97 b 446 330 393 60 419 195 b 499 331 464 330 481 331 b 499 354 523 332 524 355 b 450 353 483 354 467 353 b 459 399 453 368 456 384 b 469 447 462 415 466 431 b 545 449 494 448 520 449 b 545 471 568 449 568 470 z m 361 404 b 348 347 356 385 352 366 b 293 342 329 346 311 344 b 304 387 296 357 300 372 b 317 436 308 403 313 419 b 369 441 334 438 352 440 b 361 404 366 429 363 416 z "},"$":{"ha":615,"x_min":0,"x_max":0,"o":"m 468 207 b 337 340 430 256 384 298 b 316 358 331 346 324 352 b 356 783 326 500 340 641 b 487 648 419 766 465 707 b 523 654 492 635 528 638 b 359 804 494 731 433 788 b 376 937 364 849 370 893 b 341 937 378 949 343 951 b 323 809 335 894 329 852 b 240 795 296 810 268 805 b 79 512 132 753 38 630 b 195 357 100 451 150 401 b 272 284 221 332 247 308 b 251 -122 263 148 255 13 b 207 -90 234 -115 219 -103 b 168 128 151 -32 147 55 b 131 134 173 145 135 148 b 250 -155 99 22 129 -115 b 249 -247 249 -186 249 -216 b 307 -247 248 -270 307 -270 b 305 -165 306 -220 306 -192 b 545 21 413 -167 535 -87 b 468 207 551 90 509 155 z m 280 390 b 166 649 203 458 127 541 b 320 787 189 710 249 786 b 320 787 320 787 320 787 b 280 390 303 655 290 522 z m 382 -89 b 305 -132 362 -109 334 -128 b 310 247 304 -6 305 121 b 329 228 316 241 323 234 b 430 70 371 183 414 130 b 382 -89 445 14 422 -48 z "},"%":{"ha":824,"x_min":0,"x_max":0,"o":"m 562 594 b 652 845 594 675 634 759 b 605 852 656 863 612 862 b 471 608 550 778 511 691 b 358 353 431 524 394 438 b 254 95 322 267 287 181 b 160 -166 221 9 186 -78 b 262 -182 147 -211 247 -218 b 358 78 298 -97 326 -8 b 458 337 391 165 424 251 b 562 594 492 423 527 508 z m 752 131 b 635 256 740 189 692 240 b 491 217 585 269 525 256 b 477 202 484 213 479 208 b 477 -7 452 136 433 56 b 675 -37 520 -70 614 -75 b 752 131 730 -2 765 66 z m 672 59 b 569 7 656 25 602 -42 b 574 187 533 60 555 132 b 543 222 581 205 564 217 b 655 215 576 244 623 245 b 672 59 697 174 697 108 z m 348 559 b 277 752 369 629 354 724 b 127 733 226 770 170 762 b 83 715 107 734 87 728 b 143 483 58 635 62 529 b 348 559 220 439 321 473 z m 184 537 b 166 709 145 587 161 651 b 162 722 167 714 165 718 b 264 718 194 742 236 749 b 273 571 300 682 289 614 b 226 514 265 550 249 523 b 184 537 211 509 194 523 z "},"&":{"ha":658,"x_min":0,"x_max":0,"o":"m 530 288 b 386 279 484 310 430 300 b 386 264 379 275 381 269 b 411 264 392 259 404 261 b 532 251 451 283 502 289 b 536 114 563 211 553 157 b 362 -58 504 38 436 -25 b 242 -73 325 -74 281 -86 b 170 7 206 -61 182 -28 b 233 249 141 89 183 185 b 444 409 287 319 364 374 b 469 444 458 416 477 426 b 417 467 462 462 433 468 b 263 529 358 465 303 484 b 231 697 223 575 211 639 b 354 830 252 756 298 802 b 514 782 410 857 497 856 b 367 651 533 700 439 637 b 357 630 348 655 331 635 b 550 725 432 615 520 650 b 425 886 585 811 505 878 b 163 781 333 894 223 850 b 137 533 102 711 88 614 b 303 416 175 470 236 433 b 132 260 237 375 177 325 b 105 -43 72 174 41 49 b 407 -84 175 -143 310 -137 b 585 148 494 -37 563 51 b 530 288 597 202 583 263 z "},"'":{"ha":239,"x_min":0,"x_max":0,"o":"m 132 882 b 98 810 123 857 109 834 b 70 737 88 786 79 761 b 131 727 61 711 125 705 b 152 801 139 752 146 776 b 169 876 159 826 161 852 b 132 882 174 892 136 895 z "},"(":{"ha":589,"x_min":0,"x_max":0,"o":"m 460 -115 b 337 -152 423 -130 380 -156 b 252 -98 303 -148 273 -123 b 180 150 194 -32 183 66 b 300 693 173 335 217 527 b 373 807 320 733 344 772 b 422 858 388 826 404 842 b 484 889 437 871 462 894 b 503 907 498 885 527 899 b 261 777 408 940 314 845 b 122 497 197 693 154 596 b 70 155 87 387 67 270 b 169 -139 73 51 90 -65 b 508 -150 264 -229 405 -222 b 460 -115 545 -124 482 -105 z "},")":{"ha":604,"x_min":0,"x_max":0,"o":"m 531 439 b 440 752 523 549 497 657 b 166 897 387 841 280 945 b 183 880 145 888 170 875 b 361 728 278 915 332 796 b 420 472 395 647 412 559 b 327 -58 435 296 418 98 b 236 -150 305 -95 277 -133 b 131 -107 194 -168 153 -144 b 70 -117 120 -89 62 -89 b 174 -201 84 -163 129 -191 b 337 -172 229 -213 288 -201 b 504 103 433 -116 479 0 b 531 439 532 213 539 327 z "},"*":{"ha":376,"x_min":0,"x_max":0,"o":"m 275 798 b 206 729 252 775 229 752 b 204 808 205 755 205 781 b 167 808 203 822 166 822 b 169 747 168 787 168 767 b 122 794 155 764 140 781 b 94 781 114 799 81 793 b 159 707 118 759 138 732 b 86 705 135 707 110 706 b 86 685 64 704 64 684 b 164 686 112 686 138 686 b 86 608 138 660 112 634 b 119 597 72 595 110 587 b 169 649 136 614 153 631 b 168 593 169 630 169 612 b 205 593 167 579 204 579 b 206 650 205 612 206 631 b 239 610 217 636 228 623 b 272 621 248 599 285 606 b 219 686 254 642 236 664 b 288 682 242 685 265 684 b 288 702 309 680 309 701 b 224 706 267 704 245 705 b 304 788 251 733 278 761 b 275 798 316 800 284 806 z "},"+":{"ha":451,"x_min":0,"x_max":0,"o":"m 364 451 b 268 448 332 450 300 449 b 268 509 268 468 268 489 b 258 624 267 547 268 587 b 197 624 252 643 204 641 b 175 514 182 589 179 550 b 168 443 172 490 170 467 b 81 435 139 441 110 438 b 86 416 62 433 69 415 b 166 420 113 417 140 418 b 165 395 166 411 165 403 b 160 161 161 317 156 239 b 262 161 162 121 259 121 b 268 395 268 239 266 317 b 268 425 268 405 268 415 b 364 429 300 427 332 428 b 364 451 387 430 388 451 z "},",":{"ha":290,"x_min":0,"x_max":0,"o":"m 146 85 b 71 -80 123 29 98 -26 b 134 -90 58 -106 122 -109 b 220 74 168 -38 197 16 b 146 85 233 104 157 112 z "},"-":{"ha":463,"x_min":0,"x_max":0,"o":"m 350 331 b 219 325 306 331 262 329 b 113 309 183 322 148 313 b 74 279 92 311 57 302 b 130 268 86 263 112 266 b 203 275 155 270 179 273 b 350 281 252 278 301 280 b 394 306 365 281 393 286 b 350 331 394 325 363 331 z "},".":{"ha":211,"x_min":0,"x_max":0,"o":"m 139 44 b 90 48 133 58 99 59 b 70 -28 76 28 73 -4 b 102 -46 67 -42 93 -46 b 135 -28 115 -46 132 -42 b 140 9 137 -16 138 -4 b 139 44 142 21 144 32 z "},"/":{"ha":636,"x_min":0,"x_max":0,"o":"m 532 868 b 474 849 511 872 486 868 b 344 616 423 777 383 696 b 235 369 305 535 269 452 b 70 -131 169 205 115 39 b 114 -142 64 -152 104 -152 b 183 -24 147 -107 164 -68 b 232 101 200 17 216 59 b 329 350 264 184 295 267 b 437 593 362 432 398 513 b 565 835 477 675 523 754 b 532 868 575 854 546 866 z "},":":{"ha":218,"x_min":0,"x_max":0,"o":"m 125 554 b 109 599 121 570 118 585 b 74 599 104 608 79 611 b 70 549 68 583 69 567 b 125 554 70 526 131 527 z m 143 246 b 73 246 137 272 77 274 b 72 199 71 230 71 215 b 110 177 72 183 97 177 b 148 199 122 178 149 182 b 143 246 147 215 146 230 z "},";":{"ha":253,"x_min":0,"x_max":0,"o":"m 159 537 b 148 614 159 560 158 593 b 110 614 141 626 117 624 b 96 537 96 594 93 560 b 159 537 100 513 158 512 z m 102 255 b 69 142 89 219 72 180 b 79 129 69 136 75 131 b 103 123 86 125 94 121 b 150 169 130 129 138 144 b 181 242 161 193 171 218 b 102 255 195 275 112 284 z "},"<":{"ha":407,"x_min":0,"x_max":0,"o":"m 265 363 b 336 425 288 382 318 400 b 302 445 347 441 310 446 b 175 378 255 434 213 407 b 75 272 139 351 92 315 b 284 132 34 164 215 135 b 332 156 300 131 329 138 b 297 187 336 175 312 185 b 193 213 262 191 225 197 b 190 288 158 229 169 263 b 265 363 212 315 238 340 z "},"=":{"ha":528,"x_min":0,"x_max":0,"o":"m 106 365 b 260 381 157 371 208 378 b 414 387 311 385 363 383 b 414 426 447 390 445 422 b 245 424 359 434 301 429 b 83 396 191 420 136 411 b 71 375 73 393 66 385 b 106 365 77 364 96 364 z m 434 291 b 251 295 373 299 312 299 b 165 284 222 292 193 289 b 90 259 143 280 106 277 b 100 245 83 251 94 246 b 171 250 123 240 148 247 b 255 258 199 253 227 257 b 416 254 309 261 362 259 b 457 268 428 253 452 253 b 434 291 463 282 445 290 z "},">":{"ha":418,"x_min":0,"x_max":0,"o":"m 349 298 b 263 387 346 338 293 369 b 131 445 222 413 177 430 b 95 441 120 448 104 449 b 97 420 87 434 88 425 b 184 367 126 401 155 385 b 224 339 198 359 211 349 b 257 304 234 330 253 318 b 190 248 264 282 207 257 b 93 212 159 232 127 221 b 73 177 78 208 62 193 b 131 161 84 161 113 158 b 264 210 177 170 222 187 b 349 298 293 227 353 257 z "},"?":{"ha":554,"x_min":0,"x_max":0,"o":"m 353 854 b 106 766 262 887 161 839 b 79 616 75 723 58 667 b 197 548 98 568 147 544 b 192 567 215 549 209 568 b 107 660 140 563 108 613 b 161 780 106 707 129 748 b 275 841 191 810 232 838 b 372 783 316 845 352 817 b 367 520 418 703 394 602 b 267 267 339 434 301 351 b 193 -23 230 177 190 76 b 302 -23 194 -67 297 -65 b 333 135 310 31 317 83 b 388 289 348 187 368 238 b 482 604 428 390 471 495 b 353 854 493 705 455 817 z m 268 -115 b 237 -113 261 -109 246 -107 b 211 -190 214 -129 212 -164 b 285 -190 210 -219 283 -219 b 268 -115 286 -167 288 -131 z "},"@":{"ha":926,"x_min":0,"x_max":0,"o":"m 722 756 b 409 752 626 809 505 796 b 200 566 323 712 253 643 b 83 286 142 483 102 386 b 96 1 65 194 61 91 b 334 -166 135 -100 228 -158 b 648 -62 449 -175 554 -124 b 617 -45 669 -48 631 -35 b 371 -141 547 -96 461 -140 b 167 -33 290 -141 209 -105 b 130 196 127 36 121 118 b 212 453 140 286 169 373 b 370 643 251 526 305 592 b 573 729 426 688 499 727 b 743 385 744 733 761 508 b 642 145 731 298 698 212 b 594 98 628 128 612 111 b 567 83 586 91 576 88 b 565 83 566 83 566 83 b 562 85 564 83 563 84 b 546 101 558 91 551 95 b 533 130 541 110 536 120 b 528 215 526 157 527 187 b 486 242 529 234 500 241 b 433 222 467 243 444 240 b 349 92 406 178 381 132 b 322 61 340 81 331 71 b 310 50 318 57 314 53 b 302 46 306 47 302 47 b 297 105 290 58 296 91 b 354 237 304 153 325 200 b 407 288 369 256 388 275 b 456 290 422 297 442 305 b 460 254 466 280 467 265 b 492 248 453 241 486 238 b 464 315 509 275 491 305 b 373 299 433 326 399 317 b 238 118 313 257 259 187 b 247 20 229 86 218 45 b 354 14 276 -4 322 -1 b 444 96 390 31 418 66 b 462 68 448 86 454 77 b 615 31 499 24 563 16 b 813 246 710 58 777 159 b 722 756 876 400 893 662 z "},"A":{"ha":1156,"x_min":0,"x_max":0,"o":"m 1194 324 b 1162 329 1199 337 1166 341 b 1051 98 1131 249 1095 172 b 982 -5 1030 63 1009 26 b 936 -44 969 -21 954 -35 b 905 -54 926 -49 916 -53 b 902 -55 903 -55 902 -55 b 891 -51 898 -54 894 -53 b 852 19 866 -40 856 -6 b 843 128 845 54 844 91 b 841 400 840 218 840 309 b 842 499 842 433 842 466 b 928 519 872 499 900 505 b 902 535 947 530 913 541 b 842 521 883 524 863 521 b 837 672 842 571 840 622 b 818 803 833 716 827 760 b 780 900 810 838 802 871 b 607 938 739 956 668 962 b 465 811 546 914 500 865 b 456 798 462 807 459 802 b 418 859 445 819 432 839 b 240 949 377 919 315 959 b 88 827 169 940 118 888 b 164 435 28 706 20 502 b 256 420 193 421 224 417 b 247 438 279 422 264 440 b 95 565 172 431 115 499 b 107 784 75 635 82 715 b 251 929 130 847 176 923 b 332 871 290 932 316 903 b 376 781 348 841 363 812 b 404 701 386 755 396 728 b 379 642 395 682 387 662 b 218 587 322 639 266 623 b 225 573 211 581 220 575 b 250 576 233 569 243 571 b 371 621 287 605 328 618 b 312 367 341 538 322 452 b 313 124 302 286 303 205 b 323 70 316 105 319 87 b 338 12 328 51 331 30 b 427 -20 351 -23 394 -29 b 546 165 501 1 531 98 b 559 404 563 243 565 324 b 531 598 554 469 546 534 b 601 573 555 590 578 582 b 734 520 641 557 687 535 b 726 212 730 417 726 315 b 749 1 727 143 725 67 b 899 -84 772 -60 835 -96 b 1041 23 964 -71 1006 -31 b 1150 218 1082 85 1118 151 b 1194 324 1166 253 1181 288 z m 420 642 b 420 642 420 642 420 642 b 420 643 420 642 420 642 b 420 642 420 642 420 642 z m 376 17 b 376 17 373 16 370 16 z m 454 363 b 433 153 455 293 452 221 b 401 57 425 121 414 88 b 391 34 398 49 395 41 b 389 32 390 33 390 33 b 372 56 385 40 376 48 b 349 170 356 91 352 133 b 345 278 345 206 344 242 b 375 500 347 352 357 427 b 412 621 385 541 397 582 b 425 620 416 621 421 621 b 454 363 444 536 453 449 z m 713 554 b 528 623 652 577 592 605 b 524 624 527 623 525 624 b 474 762 511 672 495 718 b 549 868 494 800 518 837 b 726 899 586 905 692 975 b 737 812 737 873 737 841 b 738 691 738 772 739 731 b 734 546 738 643 736 594 b 713 554 727 548 720 551 z "},"B":{"ha":1168,"x_min":0,"x_max":0,"o":"m 256 300 b 413 42 255 198 279 39 b 567 328 557 45 568 220 b 550 547 567 401 562 474 b 553 545 551 546 552 546 b 624 548 574 536 604 535 b 757 584 663 572 711 596 b 856 488 805 573 837 530 b 874 262 887 418 890 338 b 688 215 811 248 748 236 b 531 97 626 192 565 155 b 556 -66 500 44 493 -32 b 766 -57 620 -101 703 -87 b 918 87 830 -26 881 27 b 987 267 951 140 975 202 b 1198 329 1058 286 1128 306 b 1179 347 1221 336 1193 352 b 991 292 1116 327 1054 309 b 965 502 1000 363 993 436 b 800 643 934 573 876 625 b 701 648 768 650 734 652 b 732 707 712 667 723 687 b 766 868 755 754 781 815 b 524 895 735 978 594 942 b 450 831 497 877 472 855 b 439 847 446 836 443 842 b 319 939 408 888 371 925 b 62 759 196 971 91 872 b 97 606 48 706 53 645 b 227 583 133 574 183 564 b 206 598 243 591 216 603 b 104 647 166 581 122 610 b 109 788 82 691 91 745 b 327 900 141 865 240 973 b 385 799 359 873 373 837 b 397 763 389 787 393 775 b 331 640 371 724 349 682 b 256 300 283 533 258 417 z m 836 151 b 735 14 812 99 779 51 b 605 -36 703 -14 649 -48 b 586 109 541 -17 558 68 b 741 206 622 161 681 189 b 868 238 783 218 825 228 b 836 151 860 207 849 178 z m 481 820 b 596 907 513 856 551 888 b 708 866 641 925 707 931 b 682 788 708 838 697 812 b 641 717 668 765 656 740 b 542 589 613 671 579 629 b 517 688 535 622 527 655 b 467 803 504 728 488 767 b 481 820 472 809 476 815 z m 426 664 b 455 375 448 570 453 472 b 448 226 455 326 455 275 b 408 109 443 188 434 138 b 376 103 395 95 391 96 b 327 157 353 113 338 135 b 298 300 305 201 299 251 b 410 723 296 444 334 597 b 426 664 416 704 422 684 z "},"C":{"ha":556,"x_min":0,"x_max":0,"o":"m 246 -149 b 471 37 355 -163 424 -42 b 594 366 532 138 573 249 b 561 366 596 378 563 379 b 351 -75 529 208 459 46 b 253 -113 327 -102 291 -132 b 186 -33 221 -96 202 -64 b 116 209 146 40 128 127 b 159 710 93 373 99 553 b 280 894 185 778 224 846 b 356 902 306 917 327 924 b 409 793 389 876 406 833 b 389 651 413 745 405 696 b 318 542 375 611 356 565 b 224 594 273 514 224 541 b 240 646 225 612 230 630 b 304 678 252 664 280 689 b 330 678 311 674 323 672 b 330 693 336 682 338 689 b 191 572 255 727 173 650 b 271 510 199 534 233 512 b 378 559 313 507 352 526 b 439 694 409 597 428 646 b 451 851 452 744 462 799 b 227 945 429 956 318 986 b 42 709 133 903 75 802 b -8 399 7 610 -6 504 b 44 55 -10 284 4 164 b 246 -149 78 -34 142 -136 z "},"D":{"ha":1001,"x_min":0,"x_max":0,"o":"m 192 131 b 326 -26 213 62 241 -22 b 442 23 370 -28 414 -11 b 458 45 448 30 453 37 b 459 40 458 43 459 42 b 660 -3 487 -45 596 -33 b 846 287 771 47 824 167 b 1031 332 909 296 972 308 b 1012 350 1055 341 1027 356 b 849 310 959 330 905 319 b 857 415 855 346 857 382 b 817 667 858 500 846 588 b 685 874 789 743 750 823 b 485 934 630 918 557 950 b 360 856 435 923 395 893 b 344 873 355 862 350 867 b 152 918 298 919 214 951 b 80 732 89 885 70 797 b 122 668 84 704 96 680 b 146 668 129 665 140 663 b 146 681 151 672 153 678 b 137 858 93 709 116 818 b 222 908 154 890 184 915 b 255 885 237 905 245 895 b 290 846 267 872 279 861 b 316 801 300 832 308 817 b 165 362 225 675 172 517 b 192 131 161 284 168 205 z m 324 23 b 327 23 326 24 327 24 b 324 23 326 22 325 22 z m 601 48 b 536 32 585 36 557 20 b 514 122 509 48 510 97 b 575 216 520 160 543 195 b 730 269 619 247 675 260 b 668 123 717 218 697 168 b 601 48 651 95 628 68 z m 612 884 b 705 728 657 846 686 781 b 748 515 730 660 743 587 b 735 293 753 442 750 366 b 530 222 664 281 588 266 b 504 197 521 215 512 207 b 510 398 514 264 514 331 b 381 830 501 545 473 710 b 612 884 444 902 528 954 z m 304 716 b 332 764 312 731 321 747 b 364 659 346 730 356 695 b 396 447 381 590 391 519 b 395 233 401 376 402 304 b 375 129 391 198 385 163 b 336 36 366 98 358 61 b 323 24 332 31 327 28 b 298 42 315 28 299 40 b 243 131 273 65 255 99 b 205 325 217 192 205 259 b 304 716 203 460 240 598 z "},"E":{"ha":614,"x_min":0,"x_max":0,"o":"m 360 -32 b 555 117 438 -9 510 50 b 653 350 601 185 641 269 b 619 350 655 362 621 363 b 548 170 609 287 579 225 b 409 20 514 110 469 57 b 193 37 349 -17 238 -35 b 249 247 154 99 213 196 b 433 394 295 311 360 364 b 455 433 449 400 469 414 b 391 451 442 452 411 454 b 198 546 313 439 239 481 b 186 780 154 618 153 704 b 349 944 217 850 275 918 b 455 930 383 956 428 958 b 491 809 486 897 496 852 b 421 678 486 761 463 704 b 313 734 371 646 324 681 b 275 734 310 750 272 748 b 367 643 285 686 317 649 b 489 698 414 638 461 661 b 460 982 547 778 562 928 b 280 983 407 1010 334 1001 b 134 888 224 965 172 931 b 69 565 57 801 23 674 b 281 394 107 474 189 415 b 171 285 239 364 202 328 b 118 34 125 221 64 110 b 360 -32 171 -41 276 -57 z "},"F":{"ha":757,"x_min":0,"x_max":0,"o":"m 225 284 b 166 -12 160 205 115 86 b 406 -75 210 -95 328 -127 b 495 54 451 -45 478 3 b 530 248 515 116 526 183 b 533 418 534 304 535 361 b 762 322 617 424 700 397 b 794 333 770 312 805 318 b 532 440 726 417 629 447 b 507 639 528 507 520 574 b 353 944 485 746 453 884 b 436 972 380 955 407 964 b 641 972 502 988 575 993 b 716 908 673 961 703 941 b 673 826 728 876 716 823 b 673 804 650 827 650 805 b 758 865 712 801 750 826 b 703 971 767 908 738 949 b 417 990 622 1022 505 1013 b 324 958 385 982 354 971 b 165 950 273 978 213 978 b 115 901 144 938 128 921 b 103 844 105 886 89 860 b 243 886 138 807 215 868 b 272 903 253 892 262 898 b 336 817 301 882 321 849 b 414 490 384 715 404 601 b 419 416 416 466 418 441 b 225 284 344 389 275 342 z m 136 857 b 164 889 135 858 161 886 b 190 908 172 896 180 902 b 243 918 208 918 223 925 b 245 917 244 918 245 918 b 136 857 206 893 139 852 z m 421 391 b 416 149 425 310 424 229 b 387 -6 411 97 401 45 b 353 -61 381 -28 370 -47 b 290 -74 334 -78 314 -80 b 201 174 181 -47 168 86 b 421 391 238 270 323 350 z "},"G":{"ha":700,"x_min":0,"x_max":0,"o":"m 624 267 b 739 378 669 291 727 324 b 705 380 741 389 708 391 b 565 265 691 322 615 288 b 566 327 566 285 566 306 b 541 570 564 407 558 491 b 486 602 537 595 508 602 b 431 570 470 602 429 595 b 433 546 431 562 432 554 b 287 246 407 438 365 326 b 207 207 267 225 239 202 b 158 255 182 211 169 236 b 115 421 130 305 119 365 b 167 723 107 525 121 629 b 252 846 189 768 217 810 b 370 914 282 878 323 919 b 433 771 441 907 461 827 b 371 710 419 745 398 723 b 290 750 337 694 285 702 b 251 750 291 764 252 765 b 387 691 245 678 339 671 b 484 832 443 715 483 770 b 373 959 485 898 438 950 b 156 878 291 970 215 933 b -1 503 54 783 4 640 b 218 174 -5 376 43 143 b 386 325 295 188 350 262 b 444 456 410 367 429 411 b 452 378 447 430 450 404 b 455 216 456 324 458 270 b 372 178 427 203 399 191 b 217 88 318 153 265 124 b 100 -49 172 54 117 8 b 171 -176 83 -105 122 -152 b 331 -185 220 -200 279 -202 b 543 104 457 -145 516 -16 b 563 236 553 147 560 192 b 624 267 584 246 604 256 z m 346 -117 b 195 -159 307 -161 251 -187 b 139 -102 171 -147 149 -128 b 160 -11 127 -71 141 -37 b 440 182 226 82 339 137 b 453 188 444 184 449 186 b 346 -117 444 84 418 -37 z "},"H":{"ha":972,"x_min":0,"x_max":0,"o":"m 174 594 b 216 653 198 604 216 626 b 177 653 216 668 177 668 b 152 613 177 636 168 620 b 102 635 132 604 113 618 b 100 742 80 667 85 708 b 163 829 114 776 136 805 b 247 864 183 846 218 877 b 336 693 305 837 325 750 b 360 450 351 613 355 532 b 369 250 364 384 365 316 b 234 105 316 210 265 164 b 248 -70 205 51 192 -28 b 329 -81 271 -87 302 -91 b 389 -26 356 -72 373 -49 b 463 208 435 42 450 128 b 469 273 466 229 468 251 b 554 330 497 292 526 311 b 588 176 562 278 573 226 b 715 8 610 107 646 39 b 983 253 865 -62 947 147 b 1011 356 995 287 1004 321 b 977 358 1014 367 980 369 b 894 136 958 281 931 207 b 823 38 875 101 856 62 b 734 71 781 6 754 34 b 671 294 698 138 682 219 b 659 408 665 332 661 370 b 723 470 681 427 703 447 b 834 642 769 521 806 579 b 883 853 862 708 885 780 b 857 938 883 883 877 916 b 759 965 834 966 792 971 b 605 835 688 953 637 895 b 545 411 539 710 535 549 b 549 374 546 399 547 386 b 470 320 523 356 497 338 b 466 469 470 370 467 420 b 441 720 464 553 458 637 b 320 899 425 796 396 866 b 119 854 249 929 171 912 b 48 667 76 807 36 733 b 174 594 58 610 118 571 z m 657 543 b 691 759 660 615 667 689 b 734 850 701 790 716 822 b 764 890 743 864 753 877 b 795 915 771 897 784 913 b 796 912 795 914 796 913 b 810 894 800 906 806 901 b 827 832 820 875 826 853 b 810 712 830 792 821 750 b 705 515 788 641 751 573 b 657 462 690 496 673 478 b 657 543 656 489 656 516 z m 371 84 b 346 -26 368 47 363 7 b 311 -61 339 -39 326 -55 b 259 -32 289 -71 268 -50 b 263 73 242 0 247 41 b 371 200 286 122 328 164 b 371 84 373 161 373 122 z "},"I":{"ha":701,"x_min":0,"x_max":0,"o":"m 145 572 b 338 551 196 525 279 512 b 313 566 356 563 324 573 b 140 635 246 523 172 573 b 134 845 107 699 103 779 b 300 944 162 903 231 961 b 393 790 370 927 387 852 b 372 305 407 628 388 466 b 362 184 368 264 364 224 b 365 68 361 146 357 105 b 499 -48 378 5 428 -58 b 649 92 569 -38 619 34 b 740 336 689 169 717 253 b 702 342 744 352 706 355 b 616 109 680 262 653 182 b 552 16 599 75 579 43 b 503 -18 538 2 522 -12 b 470 6 483 -25 475 -12 b 472 119 460 41 470 83 b 481 249 475 162 478 205 b 504 513 488 337 499 425 b 491 777 509 601 509 691 b 376 949 476 851 449 917 b 190 948 317 975 248 977 b 77 789 128 917 88 856 b 145 572 65 713 87 625 z "},"J":{"ha":725,"x_min":0,"x_max":0,"o":"m 64 700 b 189 760 112 685 158 731 b 252 819 210 779 231 799 b 278 816 261 818 269 818 b 460 650 374 802 426 731 b 476 454 468 585 473 519 b 477 424 476 444 477 434 b 411 403 454 419 432 412 b 192 112 294 353 204 240 b 241 -50 187 55 199 -9 b 410 -81 286 -94 352 -102 b 586 314 563 -24 582 174 b 587 411 587 346 587 378 b 729 333 643 405 701 382 b 763 339 735 322 770 325 b 607 430 734 395 666 420 b 587 432 600 431 593 431 b 578 593 585 486 582 540 b 535 878 569 688 560 786 b 428 870 525 912 424 908 b 447 747 433 829 440 788 b 375 808 428 771 404 792 b 275 839 344 825 310 836 b 483 982 338 896 404 950 b 681 990 538 1005 629 1033 b 706 910 704 972 718 938 b 621 906 688 869 646 879 b 586 894 612 916 573 910 b 708 868 615 860 667 848 b 736 976 749 889 759 937 b 456 998 682 1068 535 1032 b 230 840 370 961 298 902 b 94 790 182 836 134 820 b 64 700 73 774 8 716 z m 475 240 b 441 51 471 176 464 111 b 333 -60 423 2 390 -52 b 233 47 274 -67 242 -1 b 354 337 213 156 271 269 b 478 402 390 367 432 389 b 475 240 479 348 479 294 z m 83 735 b 116 770 89 748 105 761 b 200 813 140 790 170 805 b 175 789 192 805 184 797 b 111 733 154 770 134 749 b 83 735 102 727 74 712 z "},"K":{"ha":949,"x_min":0,"x_max":0,"o":"m 495 384 b 520 388 503 389 512 394 b 527 373 523 385 525 378 b 537 326 533 358 535 342 b 542 203 542 285 543 244 b 575 -17 540 129 523 43 b 762 -58 619 -68 701 -83 b 890 87 823 -32 863 30 b 987 339 929 169 946 258 b 950 344 994 353 957 357 b 869 131 916 276 897 201 b 738 -35 845 72 805 -15 b 647 93 673 -54 649 48 b 628 333 643 175 654 254 b 564 411 617 366 598 398 b 528 416 552 415 540 416 b 570 460 543 430 557 444 b 667 719 630 531 672 623 b 514 871 663 802 607 887 b 523 851 490 867 505 848 b 630 746 584 862 621 797 b 613 593 638 695 630 641 b 495 423 588 527 546 470 b 493 484 495 443 494 464 b 439 809 488 591 481 709 b 253 954 406 887 341 950 b 84 790 159 958 81 884 b 259 637 86 698 167 621 b 250 656 282 641 267 659 b 122 821 161 641 109 746 b 191 919 129 862 154 899 b 303 910 227 937 273 940 b 349 816 328 885 340 849 b 371 687 361 774 366 730 b 382 391 381 590 385 489 b 379 337 381 373 380 355 b 187 191 310 295 235 257 b 247 -11 135 119 141 3 b 462 166 355 -25 432 75 b 495 384 485 236 494 310 z m 254 38 b 254 38 256 37 259 37 z m 259 41 b 253 38 257 40 255 38 b 252 38 253 38 253 38 b 232 48 245 39 238 44 b 199 109 212 62 200 85 b 372 304 192 204 303 263 b 377 306 374 304 375 305 b 330 131 370 246 358 185 b 259 41 313 98 289 63 z "},"L":{"ha":719,"x_min":0,"x_max":0,"o":"m 461 15 b 486 175 477 67 485 121 b 486 178 486 176 486 177 b 757 323 583 213 686 243 b 727 333 768 335 735 341 b 486 203 663 263 573 234 b 443 505 485 305 465 406 b 432 554 439 522 435 538 b 500 614 457 571 480 591 b 561 881 562 686 597 789 b 466 971 545 922 512 962 b 320 916 415 982 352 958 b 304 618 255 831 284 714 b 321 537 309 591 315 564 b 129 603 251 523 177 541 b 98 757 96 646 82 705 b 204 858 114 805 154 848 b 194 880 230 863 214 884 b 53 690 106 862 42 781 b 244 511 65 593 149 524 b 327 513 272 508 300 508 b 373 263 345 430 363 348 b 380 160 377 229 379 195 b 248 26 320 131 265 91 b 380 -104 227 -56 293 -144 b 461 15 428 -81 447 -32 z m 395 814 b 407 875 396 835 399 856 b 438 926 413 891 424 915 b 492 914 455 941 478 928 b 530 842 512 895 524 869 b 429 589 551 748 501 649 b 425 585 428 588 426 586 b 395 814 407 661 391 738 z m 365 1 b 339 -72 360 -22 354 -53 b 286 -37 316 -102 292 -59 b 297 50 278 -8 283 24 b 379 130 315 85 345 111 b 377 87 379 116 378 102 b 365 1 375 58 371 30 z "},"M":{"ha":1372,"x_min":0,"x_max":0,"o":"m 1105 646 b 1066 232 1097 508 1074 371 b 1093 47 1063 171 1060 102 b 1237 -13 1122 -2 1179 -41 b 1341 136 1293 14 1320 82 b 1411 342 1367 204 1384 274 b 1373 348 1417 358 1378 361 b 1310 166 1349 288 1332 226 b 1273 83 1299 137 1288 109 b 1206 15 1264 67 1231 4 b 1180 83 1186 23 1181 66 b 1178 177 1177 115 1177 146 b 1194 389 1181 248 1187 318 b 1209 600 1201 459 1208 530 b 1187 805 1210 667 1209 741 b 1070 890 1170 855 1123 891 b 951 800 1013 889 977 845 b 855 550 905 723 877 637 b 853 594 855 565 854 579 b 843 694 851 628 848 661 b 824 790 838 725 834 759 b 713 903 805 842 767 886 b 572 862 663 920 609 898 b 512 782 549 839 529 811 b 236 959 454 880 359 972 b 76 692 116 945 49 801 b 190 587 89 637 133 593 b 347 659 252 580 304 620 b 318 669 359 670 327 677 b 182 611 283 639 232 593 b 109 734 132 629 110 685 b 257 938 107 818 158 940 b 372 858 307 937 345 896 b 439 730 399 819 420 774 b 461 674 447 712 454 693 b 418 536 443 629 430 583 b 372 142 385 407 364 275 b 441 1 375 85 384 28 b 595 54 499 -26 561 4 b 643 229 630 104 640 169 b 632 417 645 291 640 355 b 533 744 616 529 586 643 b 553 780 540 756 546 769 b 683 886 580 824 624 893 b 750 755 743 880 747 800 b 750 570 753 694 751 632 b 749 376 750 506 749 441 b 858 376 749 333 857 333 b 858 400 858 384 858 392 b 971 765 885 525 911 651 b 1021 841 985 791 1000 819 b 1057 866 1031 852 1043 861 b 1099 844 1079 873 1091 862 b 1109 756 1110 816 1108 785 b 1105 646 1109 720 1108 683 z m 470 42 b 470 42 476 43 473 39 z m 516 443 b 518 142 529 344 540 240 b 470 42 512 112 500 59 b 470 43 470 42 470 42 b 458 52 469 44 460 49 b 437 84 448 60 442 72 b 418 170 425 110 421 141 b 449 496 407 279 425 390 b 481 615 458 536 468 576 b 516 443 497 559 509 501 z "},"N":{"ha":1183,"x_min":0,"x_max":0,"o":"m 809 304 b 809 84 804 233 794 154 b 852 3 816 52 828 26 b 938 -38 876 -19 905 -34 b 1187 226 1086 -54 1146 114 b 1221 336 1200 262 1211 299 b 1183 342 1225 353 1187 356 b 1092 100 1161 259 1131 176 b 1015 8 1073 64 1051 27 b 935 26 985 -9 949 -10 b 919 118 924 54 921 88 b 919 252 916 163 918 208 b 933 523 923 343 932 432 b 926 657 934 567 931 613 b 897 775 921 696 914 740 b 740 922 866 839 811 902 b 566 862 673 940 613 909 b 520 811 550 846 534 829 b 399 942 490 863 451 912 b 78 795 271 1014 102 944 b 139 620 68 733 85 658 b 324 637 195 579 273 595 b 390 718 351 659 372 688 b 358 724 397 730 364 734 b 181 625 323 669 254 590 b 116 799 120 655 105 739 b 254 941 129 864 181 937 b 392 852 314 944 361 900 b 455 722 419 812 438 767 b 429 679 446 708 437 694 b 311 237 353 547 304 390 b 330 121 313 198 318 159 b 373 26 339 90 351 51 b 560 66 428 -37 520 12 b 633 293 609 131 627 212 b 617 541 639 376 633 460 b 535 783 601 625 575 707 b 535 783 535 783 535 783 b 689 908 573 831 624 901 b 822 769 770 916 814 838 b 829 546 829 694 833 621 b 809 304 824 465 815 384 z m 512 235 b 487 132 507 200 498 166 b 446 49 477 103 467 72 b 418 44 434 37 432 34 b 387 86 404 55 395 70 b 353 192 371 119 360 155 b 359 402 341 261 346 333 b 467 685 379 501 416 597 b 472 671 469 680 471 675 b 517 452 495 600 510 526 b 512 235 523 380 523 306 z "},"O":{"ha":786,"x_min":0,"x_max":0,"o":"m 633 278 b 741 321 671 291 707 305 b 823 375 772 334 799 351 b 790 386 835 388 800 395 b 636 306 749 344 691 325 b 627 522 643 379 639 453 b 431 882 604 655 544 800 b 243 928 378 920 308 939 b 99 834 182 918 134 885 b 75 475 28 731 31 588 b 109 408 84 452 95 429 b 85 291 95 368 87 326 b 231 -36 78 174 123 25 b 446 -49 295 -72 378 -80 b 584 102 510 -21 555 39 b 633 278 609 157 625 217 z m 83 681 b 285 903 93 779 163 927 b 485 669 394 882 451 763 b 525 329 524 560 535 443 b 519 273 524 311 522 292 b 449 263 496 268 472 264 b 161 390 335 255 229 296 b 149 407 157 395 153 401 b 174 461 156 426 164 444 b 334 531 203 511 274 589 b 355 450 354 511 368 477 b 290 405 343 425 316 407 b 264 374 275 403 253 391 b 320 363 275 357 304 359 b 397 483 374 377 405 428 b 282 573 389 539 337 575 b 125 448 209 570 157 515 b 83 681 90 520 75 602 z m 407 22 b 169 108 322 -56 216 29 b 137 368 123 184 115 281 b 330 249 186 309 252 266 b 515 248 390 236 453 238 b 407 22 500 164 469 79 z "},"P":{"ha":1025,"x_min":0,"x_max":0,"o":"m 718 441 b 784 436 739 445 762 444 b 876 383 818 425 847 402 b 1054 344 929 348 991 321 b 1035 362 1078 352 1050 368 b 829 444 959 335 891 414 b 755 464 805 456 780 462 b 922 717 839 524 904 616 b 863 892 933 782 915 850 b 705 935 819 928 761 946 b 542 825 639 923 585 879 b 214 962 473 937 346 1016 b 89 658 96 913 41 777 b 215 559 111 604 155 564 b 375 612 272 554 331 575 b 428 677 397 630 414 652 b 393 683 435 690 400 694 b 272 585 367 636 324 599 b 131 651 210 568 159 594 b 220 935 84 748 116 890 b 458 783 328 982 419 869 b 480 728 466 765 473 746 b 451 669 469 708 460 688 b 372 250 394 539 366 391 b 416 43 375 180 386 106 b 577 -21 445 -19 511 -55 b 659 156 637 10 650 96 b 664 383 669 231 669 308 b 662 418 664 395 663 406 b 668 419 664 418 666 418 b 690 426 676 420 683 423 b 718 441 700 431 709 435 z m 528 69 b 505 13 524 50 519 27 b 505 13 505 13 505 13 b 487 24 498 14 491 21 b 456 61 475 34 464 47 b 415 236 427 113 419 178 b 463 593 406 356 425 480 b 497 679 473 622 484 651 b 547 433 522 599 538 516 b 528 69 559 311 556 188 z m 561 792 b 637 873 583 823 608 851 b 804 894 684 911 751 935 b 842 728 856 854 861 786 b 653 491 809 630 739 547 b 561 792 638 596 610 701 z "},"Q":{"ha":786,"x_min":0,"x_max":0,"o":"m 790 386 b 636 306 749 344 691 325 b 627 522 643 379 639 453 b 431 882 604 655 544 800 b 243 928 378 920 308 939 b 99 834 182 918 134 885 b 75 475 28 731 31 588 b 109 408 84 452 95 429 b 85 291 95 368 87 326 b 212 -24 79 181 118 43 b 145 -66 188 -30 165 -44 b 175 -76 133 -78 166 -85 b 229 -40 190 -61 207 -44 b 237 -39 231 -40 234 -39 b 293 -61 254 -49 273 -56 b 373 -124 321 -80 344 -105 b 541 -114 426 -158 493 -157 b 508 -103 554 -102 518 -94 b 349 -68 450 -156 398 -108 b 446 -49 382 -69 416 -63 b 584 102 510 -21 555 39 b 633 278 609 157 625 217 b 741 321 671 291 707 305 b 823 375 772 334 799 351 b 790 386 835 388 800 395 z m 83 681 b 285 903 93 779 163 927 b 485 669 394 882 451 763 b 525 329 524 560 535 443 b 519 273 524 311 522 292 b 449 263 496 268 472 264 b 161 390 335 255 229 296 b 149 407 157 395 153 401 b 174 461 156 426 164 444 b 334 531 203 511 274 589 b 355 450 354 511 368 477 b 290 405 343 425 316 407 b 264 374 275 403 253 391 b 320 363 275 357 304 359 b 397 483 374 377 405 428 b 282 573 389 539 337 575 b 125 448 209 570 157 515 b 83 681 90 520 75 602 z m 407 22 b 169 108 322 -56 216 29 b 137 368 123 184 115 281 b 330 249 186 309 252 266 b 515 248 390 236 453 238 b 407 22 500 164 469 79 z "},"R":{"ha":1172,"x_min":0,"x_max":0,"o":"m 659 156 b 664 383 669 231 669 308 b 662 411 664 392 663 402 b 665 412 663 411 664 411 b 707 417 678 419 693 426 b 721 396 714 412 718 405 b 733 345 727 380 730 362 b 745 231 739 307 743 269 b 782 -1 748 155 743 67 b 868 -71 801 -34 829 -62 b 967 -68 901 -78 935 -80 b 1108 80 1033 -45 1076 22 b 1211 329 1152 159 1182 244 b 1179 334 1216 343 1183 346 b 1095 122 1154 262 1129 190 b 1032 19 1077 86 1056 51 b 938 -48 1010 -10 978 -47 b 909 -25 921 -48 918 -38 b 888 16 900 -13 894 2 b 862 127 875 52 867 89 b 820 348 854 200 855 281 b 737 433 801 384 772 413 b 718 440 730 436 724 439 b 922 717 819 498 902 601 b 863 892 933 782 915 850 b 705 935 819 928 761 946 b 542 825 639 923 585 879 b 214 962 473 937 346 1016 b 89 658 96 913 41 777 b 215 559 111 604 155 564 b 375 612 272 554 331 575 b 428 677 397 630 414 652 b 393 683 435 690 400 694 b 272 585 367 636 324 599 b 131 651 210 568 159 594 b 220 935 84 748 116 890 b 458 783 328 982 419 869 b 480 728 466 765 473 747 b 451 669 469 708 460 688 b 372 250 394 539 366 391 b 416 43 375 180 386 106 b 577 -21 445 -19 511 -55 b 659 156 637 10 650 96 z m 528 69 b 505 13 524 50 519 27 b 505 13 505 13 505 13 b 487 24 498 14 491 21 b 456 61 475 34 464 47 b 415 236 427 113 419 178 b 463 593 406 356 425 480 b 497 679 473 622 484 651 b 547 433 522 599 538 516 b 528 69 559 311 556 188 z m 561 792 b 637 873 583 823 608 851 b 804 894 684 911 751 935 b 842 728 856 854 862 786 b 653 491 809 630 739 547 b 561 792 638 596 610 701 z "},"S":{"ha":651,"x_min":0,"x_max":0,"o":"m 657 351 b 687 361 666 343 699 348 b 423 424 621 435 515 448 b 312 379 385 414 347 399 b 169 608 252 448 198 521 b 255 884 135 710 159 826 b 394 863 299 910 365 912 b 320 741 424 812 390 720 b 294 737 313 743 299 744 b 301 721 289 730 293 724 b 436 863 386 696 476 774 b 205 906 397 949 276 936 b 43 697 122 870 54 789 b 166 405 32 591 105 484 b 232 327 187 378 209 352 b 157 255 204 305 179 281 b 58 -33 90 177 48 72 b 112 -162 63 -80 79 -127 b 236 -228 144 -197 190 -218 b 497 -161 327 -250 428 -228 b 567 -37 532 -126 557 -86 b 536 107 576 14 562 62 b 330 359 482 200 403 277 b 657 351 433 417 566 447 z m 473 45 b 482 -92 494 1 495 -45 b 387 -200 467 -142 436 -180 b 231 -203 338 -220 281 -219 b 112 -100 177 -186 134 -152 b 100 59 91 -50 90 6 b 252 305 117 158 176 242 b 377 172 293 261 336 217 b 473 45 412 134 450 93 z "},"T":{"ha":881,"x_min":0,"x_max":0,"o":"m 492 198 b 516 22 495 139 501 80 b 602 -97 529 -26 555 -75 b 822 26 695 -139 780 -46 b 928 380 884 131 914 260 b 892 380 929 394 893 395 b 815 87 880 280 856 179 b 631 -50 794 41 683 -150 b 605 85 610 -8 608 40 b 602 245 602 138 601 192 b 622 562 604 351 612 457 b 643 741 628 622 635 682 b 669 924 651 802 662 863 b 612 956 671 949 629 956 b 556 924 589 956 561 949 b 519 681 538 845 528 763 b 516 690 518 684 517 687 b 395 845 489 750 449 807 b 393 846 394 846 394 846 b 617 989 457 909 529 961 b 866 939 697 1014 826 1037 b 842 810 883 897 876 842 b 738 835 806 775 754 787 b 701 830 734 849 696 846 b 846 778 720 769 794 753 b 900 952 909 809 930 891 b 725 1033 869 1017 791 1036 b 504 968 648 1029 571 1004 b 365 863 452 940 406 904 b 60 764 254 919 110 888 b 116 613 36 706 51 634 b 263 698 185 592 226 652 b 373 826 298 742 334 786 b 477 688 419 791 454 740 b 511 592 491 657 502 625 b 508 557 510 581 509 569 b 492 198 497 438 488 318 z m 329 827 b 255 741 303 799 279 770 b 185 654 232 712 211 681 b 137 632 172 641 156 629 b 94 672 117 636 101 655 b 111 786 77 709 91 753 b 313 859 154 857 234 886 b 345 844 324 855 335 850 b 329 827 340 838 334 833 z "},"U":{"ha":1174,"x_min":0,"x_max":0,"o":"m 1119 82 b 1213 346 1169 162 1195 254 b 1180 346 1215 358 1182 359 b 1112 137 1164 274 1145 203 b 1048 39 1095 102 1074 68 b 1001 6 1036 26 1019 9 b 956 41 978 2 964 23 b 928 156 940 76 934 118 b 916 283 922 198 918 240 b 920 552 912 373 914 462 b 955 858 928 654 942 756 b 844 858 960 899 852 901 b 839 827 843 847 841 837 b 707 291 787 650 764 466 b 655 163 693 247 676 203 b 560 48 632 120 604 72 b 496 48 541 39 513 31 b 478 93 486 59 482 78 b 472 216 469 133 470 175 b 501 505 475 313 487 409 b 511 789 514 599 525 695 b 377 1009 498 878 465 971 b 171 980 305 1040 230 1031 b 121 736 104 922 71 815 b 321 696 163 668 256 648 b 295 707 333 705 303 713 b 131 824 212 647 130 742 b 279 1007 132 905 193 998 b 370 949 323 1012 348 983 b 406 828 393 913 401 870 b 395 558 416 738 407 647 b 361 290 383 469 366 380 b 369 155 358 245 361 200 b 411 58 375 120 387 85 b 602 44 460 5 546 2 b 730 257 668 94 704 182 b 807 551 764 353 786 451 b 815 236 800 445 801 340 b 938 -8 827 150 848 32 b 1119 82 1018 -43 1079 18 z "},"V":{"ha":1088,"x_min":0,"x_max":0,"o":"m 256 967 b 425 887 328 991 391 950 b 478 667 462 820 472 741 b 486 432 484 589 485 510 b 490 195 486 353 486 274 b 542 -19 493 125 493 37 b 730 -45 589 -72 671 -78 b 850 107 787 -13 823 50 b 923 312 881 172 905 241 b 1038 310 960 303 999 302 b 1121 347 1068 317 1096 329 b 1093 363 1139 360 1105 371 b 929 336 1040 324 982 320 b 961 540 944 404 955 472 b 963 762 968 613 972 689 b 901 948 955 826 940 896 b 757 991 868 994 811 1016 b 648 843 700 965 666 901 b 725 453 606 709 643 565 b 871 331 763 402 813 358 b 807 141 854 267 833 202 b 686 -13 782 84 745 16 b 661 -16 674 -19 669 -23 b 638 7 652 -10 645 -2 b 611 107 618 37 615 72 b 600 330 604 181 601 255 b 281 996 597 546 618 1033 b 90 702 149 981 41 832 b 224 599 112 645 163 605 b 371 660 280 594 338 615 b 342 670 382 673 350 679 b 185 634 306 623 239 603 b 123 820 122 671 105 753 b 256 967 141 885 191 945 z m 754 473 b 696 864 675 586 643 734 b 835 968 715 912 771 1012 b 912 783 890 930 906 845 b 877 359 927 643 909 495 b 754 473 828 386 785 429 z "},"W":{"ha":1435,"x_min":0,"x_max":0,"o":"m 1240 862 b 1036 1025 1208 953 1147 1049 b 838 798 935 1003 869 888 b 844 493 803 699 801 589 b 1077 293 888 395 972 319 b 1212 278 1120 283 1166 278 b 1211 277 1212 278 1212 278 b 1083 23 1189 187 1154 86 b 944 5 1042 -13 992 -25 b 857 123 901 31 876 77 b 817 459 814 230 801 345 b 766 488 820 481 781 488 b 716 459 746 488 720 482 b 715 271 705 398 705 333 b 699 189 711 243 705 216 b 660 67 688 148 677 106 b 633 17 653 49 645 32 b 584 -16 624 4 603 -19 b 560 6 580 -15 565 -1 b 540 57 550 21 544 40 b 531 182 531 98 532 141 b 532 446 530 270 532 358 b 519 706 533 532 531 620 b 446 934 507 782 490 870 b 281 1023 408 989 349 1028 b 125 921 216 1017 158 976 b 123 707 86 857 82 772 b 316 637 164 643 243 614 b 299 654 337 644 312 658 b 134 775 217 630 149 701 b 197 960 120 842 147 914 b 302 1002 224 985 263 1006 b 371 942 336 998 358 971 b 417 729 400 876 410 799 b 419 232 433 563 421 398 b 422 111 419 192 419 151 b 452 0 424 73 429 32 b 637 -34 495 -57 577 -76 b 735 177 702 10 719 105 b 737 185 736 180 736 183 b 770 110 746 159 757 134 b 1025 -36 819 20 916 -62 b 1220 177 1128 -11 1184 84 b 1252 280 1232 210 1243 245 b 1465 331 1326 285 1400 303 b 1447 348 1486 340 1461 354 b 1257 303 1387 324 1322 309 b 1284 517 1272 374 1281 446 b 1240 862 1290 633 1279 752 z m 1131 306 b 910 447 1039 318 961 369 b 976 960 808 603 846 830 b 1118 992 1014 997 1069 1024 b 1192 885 1154 967 1176 924 b 1247 586 1230 790 1246 688 b 1217 301 1248 491 1238 394 b 1131 306 1188 301 1160 302 z "},"X":{"ha":863,"x_min":0,"x_max":0,"o":"m 790 105 b 901 342 838 178 876 258 b 864 348 906 359 868 362 b 761 125 840 269 805 194 b 684 22 738 89 712 54 b 574 -30 662 -2 611 -53 b 539 47 552 -17 544 25 b 524 165 530 85 527 126 b 517 435 516 255 517 345 b 512 618 518 496 518 558 b 615 771 542 672 575 724 b 686 843 637 797 661 821 b 793 883 711 864 761 913 b 825 893 802 874 838 881 b 588 788 749 966 634 841 b 505 675 557 753 530 715 b 500 703 504 685 502 694 b 413 911 485 777 464 853 b 81 854 316 1022 141 983 b 104 639 48 785 51 697 b 294 589 151 587 228 566 b 277 606 314 596 290 610 b 109 685 210 582 138 624 b 143 896 77 753 95 840 b 322 925 188 948 268 983 b 391 739 368 877 382 802 b 404 473 403 650 404 562 b 291 175 362 375 327 275 b 217 21 272 121 250 68 b 77 -57 187 -21 134 -74 b 28 105 12 -38 10 52 b 165 173 46 160 108 211 b 191 188 176 166 209 175 b 57 191 152 215 99 213 b -17 71 13 167 -11 120 b 35 -66 -23 21 -13 -40 b 170 -63 77 -89 129 -85 b 351 234 276 -8 314 131 b 403 376 368 282 385 329 b 404 237 403 330 403 283 b 446 14 407 166 409 78 b 618 -58 481 -43 552 -78 b 790 105 696 -35 747 41 z "},"Y":{"ha":1056,"x_min":0,"x_max":0,"o":"m 797 -66 b 917 282 879 29 908 157 b 1085 342 973 303 1029 323 b 1065 361 1108 351 1080 367 b 919 309 1017 344 967 327 b 920 368 920 329 920 349 b 898 645 921 461 912 553 b 870 781 891 690 882 736 b 850 849 864 804 858 826 b 818 919 842 873 828 895 b 774 929 814 930 790 934 b 755 918 765 929 756 925 b 667 430 737 754 721 587 b 537 292 656 399 585 230 b 512 391 516 320 516 358 b 505 508 507 430 505 469 b 497 749 505 589 510 669 b 400 942 485 819 459 898 b 215 964 347 982 276 990 b 86 828 154 938 111 889 b 124 636 60 763 62 681 b 332 666 188 591 276 625 b 309 680 348 678 318 687 b 199 636 277 657 239 637 b 120 692 163 635 135 660 b 162 888 89 756 120 837 b 327 924 200 935 276 976 b 389 740 372 879 383 801 b 391 518 397 666 392 592 b 430 301 391 448 387 360 b 601 259 469 248 542 226 b 705 416 657 290 685 359 b 774 729 740 517 760 623 b 779 695 776 718 777 707 b 803 479 789 623 799 551 b 801 262 808 408 808 335 b 631 179 743 238 686 210 b 488 57 577 147 525 109 b 457 -125 453 7 427 -67 b 626 -173 490 -189 564 -190 b 797 -66 692 -155 752 -118 z m 673 -88 b 515 -138 638 -125 563 -181 b 517 36 465 -93 486 -13 b 649 157 548 88 598 126 b 798 234 697 186 747 211 b 759 61 791 175 779 117 b 673 -88 739 6 713 -45 z "},"Z":{"ha":896,"x_min":0,"x_max":0,"o":"m 380 251 b 162 163 304 234 224 211 b 104 -20 108 123 54 44 b 325 -79 154 -84 251 -91 b 539 18 404 -65 477 -31 b 709 276 619 80 683 174 b 927 319 782 285 856 297 b 909 337 949 326 923 341 b 713 295 845 316 779 304 b 715 430 722 340 724 386 b 554 635 698 522 642 599 b 490 652 534 643 512 649 b 574 779 528 688 558 730 b 522 910 590 831 566 881 b 365 934 476 941 418 943 b 97 788 261 918 164 869 b 4 487 29 707 -12 593 b 81 353 12 434 36 383 b 224 336 123 325 177 317 b 207 352 244 344 220 358 b 39 498 114 315 47 419 b 104 745 30 584 57 674 b 311 900 153 818 228 873 b 451 901 354 913 409 923 b 486 801 490 881 501 840 b 333 639 459 731 400 673 b 281 617 315 633 298 626 b 277 575 263 607 260 588 b 349 567 296 561 327 559 b 392 585 363 572 378 578 b 499 578 427 596 464 595 b 602 426 556 550 592 487 b 594 282 610 378 606 329 b 380 251 522 274 451 266 z m 470 76 b 148 1 397 8 238 -91 b 221 172 87 63 166 141 b 431 240 285 208 359 227 b 588 262 483 250 536 256 b 470 76 565 191 523 126 z "},"[":{"ha":506,"x_min":0,"x_max":0,"o":"m 425 -104 b 388 -105 414 -98 399 -100 b 287 -131 361 -119 318 -144 b 229 -66 260 -120 240 -91 b 198 55 211 -27 204 14 b 185 187 193 99 188 143 b 180 451 178 275 178 363 b 200 710 182 538 187 624 b 340 896 210 777 242 926 b 359 915 355 892 383 908 b 151 811 274 942 191 884 b 79 512 103 722 89 612 b 73 182 69 402 67 292 b 92 16 76 126 82 71 b 142 -116 100 -32 112 -77 b 285 -184 176 -159 230 -184 b 432 -124 341 -184 388 -157 b 425 -104 442 -117 432 -107 z "},"\\":{"ha":463,"x_min":0,"x_max":0,"o":"m 393 -113 b 339 148 381 -25 358 62 b 280 409 320 235 300 322 b 216 653 260 491 240 572 b 110 887 191 736 161 817 b 70 884 104 896 67 902 b 123 647 80 804 103 726 b 176 400 143 565 159 482 b 229 139 194 313 211 226 b 287 -121 247 52 261 -36 b 393 -113 296 -155 397 -152 z "},"]":{"ha":522,"x_min":0,"x_max":0,"o":"m 444 527 b 361 845 434 634 416 750 b 240 934 335 891 295 928 b 118 896 196 940 150 929 b 150 885 105 882 141 876 b 249 897 176 911 218 924 b 298 796 277 873 288 831 b 339 531 324 710 334 620 b 284 22 349 362 351 181 b 137 -98 267 -18 198 -160 b 74 -119 120 -81 50 -91 b 336 -92 144 -199 275 -166 b 444 197 401 -12 430 97 b 444 527 458 307 453 418 z "},"^":{"ha":403,"x_min":0,"x_max":0,"o":"m 311 770 b 280 823 306 791 299 810 b 206 836 259 837 231 840 b 110 758 162 828 133 794 b 70 639 87 723 68 681 b 124 634 70 616 115 620 b 215 771 153 680 176 733 b 224 724 220 756 222 740 b 234 628 229 692 230 660 b 334 628 238 589 336 589 b 311 770 331 676 324 724 z "},"_":{"ha":494,"x_min":0,"x_max":0,"o":"m 424 -51 b 371 -34 417 -32 386 -33 b 94 -67 278 -41 187 -57 b 70 -89 83 -69 68 -76 b 103 -106 72 -102 93 -106 b 394 -81 200 -107 299 -94 b 424 -51 408 -79 431 -69 z "},"`":{"ha":228,"x_min":0,"x_max":0,"o":"m 159 732 b 143 804 154 756 149 780 b 120 865 138 826 134 847 b 75 861 111 875 81 875 b 72 799 66 842 70 820 b 80 732 74 777 77 755 b 159 732 84 700 164 705 z "},"a":{"ha":557,"x_min":0,"x_max":0,"o":"m 570 353 b 502 162 553 288 531 223 b 457 76 489 132 475 103 b 423 39 450 66 436 42 b 416 42 415 37 422 35 b 410 60 413 46 411 55 b 395 261 392 124 393 195 b 412 476 396 334 408 404 b 308 484 415 515 316 518 b 304 468 306 479 305 474 b 275 501 296 480 287 491 b 146 520 240 532 190 535 b -15 296 51 488 2 389 b -14 139 -25 244 -25 190 b 47 15 -5 95 9 43 b 240 127 135 -52 209 56 b 286 263 259 171 273 216 b 288 215 286 246 287 230 b 376 13 292 148 303 40 b 520 116 448 -14 493 63 b 606 351 558 190 587 269 b 570 353 608 363 573 365 z m 240 239 b 200 129 229 201 216 164 b 136 37 186 98 168 53 b 104 52 118 28 113 37 b 86 103 96 68 91 85 b 73 226 76 143 72 185 b 140 435 75 300 97 375 b 222 485 158 460 187 499 b 285 406 253 472 271 438 b 240 239 269 351 256 294 z "},"b":{"ha":608,"x_min":0,"x_max":0,"o":"m 651 349 b 523 288 611 324 567 305 b 525 367 526 314 527 341 b 428 532 519 430 490 504 b 267 491 373 558 306 536 b 174 280 217 434 192 353 b 147 163 164 242 155 203 b 143 180 146 169 144 174 b 114 352 132 237 122 294 b 112 368 113 357 113 362 b 286 616 183 440 245 524 b 335 783 310 669 328 725 b 304 938 341 834 339 896 b 166 962 269 979 213 982 b 48 832 110 938 72 887 b -5 442 -5 710 -14 572 b 28 216 1 366 12 290 b 97 -4 44 142 60 62 b 170 2 109 -24 169 -28 b 170 10 170 4 170 7 b 359 26 227 -23 305 -9 b 518 259 440 78 497 165 b 679 333 572 281 630 301 b 651 349 698 346 663 356 z m 117 701 b 160 859 127 755 138 809 b 253 931 173 889 210 960 b 292 783 297 901 298 829 b 248 630 286 730 270 678 b 107 417 214 550 164 481 b 117 701 99 512 101 608 z m 330 110 b 223 54 306 85 261 38 b 296 164 151 83 269 151 b 397 209 330 180 363 195 b 330 110 381 173 358 139 z m 412 244 b 221 165 348 218 283 194 b 185 144 210 160 198 153 b 199 210 189 166 194 188 b 250 388 211 271 226 331 b 356 516 270 436 300 501 b 434 391 420 533 433 433 b 412 244 436 342 428 291 z "},"c":{"ha":389,"x_min":0,"x_max":0,"o":"m 412 348 b 309 123 384 270 351 194 b 142 44 280 72 200 -34 b 106 149 121 72 112 115 b 102 270 99 189 99 230 b 168 469 108 339 128 411 b 205 504 175 480 191 502 b 247 475 223 506 239 488 b 249 340 272 434 259 383 b 288 337 246 327 284 324 b 294 479 300 383 313 433 b 199 546 278 520 243 545 b 0 345 92 547 21 438 b 34 49 -22 253 -25 128 b 160 -16 65 7 107 -17 b 279 31 202 -16 247 4 b 372 166 321 67 347 118 b 447 343 401 223 426 282 b 412 348 452 358 416 361 z "},"d":{"ha":693,"x_min":0,"x_max":0,"o":"m 704 343 b 633 144 687 274 664 208 b 582 59 619 114 603 85 b 498 11 566 38 528 -9 b 460 78 478 25 468 56 b 434 177 449 110 440 144 b 411 328 424 227 416 277 b 594 692 491 439 561 558 b 587 899 609 754 628 842 b 502 934 568 926 536 940 b 406 865 461 927 430 896 b 316 646 358 801 332 723 b 295 481 304 592 297 536 b 275 501 289 488 283 495 b 146 520 240 532 190 535 b -15 296 51 488 2 389 b -14 139 -25 244 -25 190 b 47 15 -5 95 9 43 b 240 127 135 -52 209 56 b 301 323 267 190 285 257 b 329 173 307 273 317 222 b 454 -11 348 102 381 20 b 635 79 532 -44 596 17 b 737 338 684 157 715 248 b 704 343 740 352 707 354 z m 240 239 b 200 129 229 201 216 164 b 136 37 186 98 168 53 b 104 52 118 28 113 37 b 86 103 96 68 91 85 b 73 226 76 143 72 185 b 140 435 75 300 97 375 b 222 485 158 460 188 499 b 285 406 253 472 271 438 b 240 239 269 351 256 294 z m 464 763 b 502 850 475 792 487 822 b 522 882 508 861 514 873 b 534 892 526 887 530 889 b 535 892 534 892 535 892 b 547 880 539 888 543 885 b 553 686 588 830 567 743 b 407 382 525 576 471 476 b 464 763 402 512 418 640 z "},"e":{"ha":406,"x_min":0,"x_max":0,"o":"m 424 342 b 341 147 403 274 377 208 b 270 59 321 115 299 84 b 160 39 242 33 193 4 b 116 141 136 65 124 107 b 103 273 105 184 101 229 b 115 355 105 300 108 328 b 245 398 161 356 209 370 b 274 517 280 425 304 478 b 132 540 243 558 176 558 b 22 411 78 517 42 465 b 38 67 -18 306 -19 166 b 179 -10 67 16 120 -14 b 313 57 229 -7 278 23 b 404 194 351 96 380 145 b 457 339 426 240 445 289 b 424 342 459 350 427 352 z m 192 495 b 232 499 206 507 216 515 b 233 433 249 482 246 452 b 122 378 210 397 164 381 b 192 495 136 422 158 463 z "},"f":{"ha":389,"x_min":0,"x_max":0,"o":"m 422 345 b 398 349 417 352 404 351 b 96 330 299 322 195 348 b 94 372 95 344 95 358 b 333 767 199 487 299 615 b 254 953 349 838 351 946 b 51 782 158 960 87 859 b -14 507 11 696 -6 601 b -4 193 -23 403 -21 297 b 80 -61 10 105 31 15 b 174 -158 104 -98 136 -133 b 280 -157 203 -177 254 -188 b 301 118 342 -84 329 34 b 142 306 275 199 224 279 b 415 331 232 320 326 306 b 422 345 423 333 426 339 z m 134 694 b 228 892 154 762 181 837 b 266 916 236 902 251 920 b 296 873 282 912 292 888 b 289 753 306 835 299 790 b 94 421 256 627 180 519 b 134 694 96 514 108 606 z m 258 131 b 268 -106 286 57 299 -30 b 259 -125 266 -112 263 -119 b 246 -139 255 -131 251 -135 b 241 -140 246 -139 243 -140 b 235 -137 239 -139 236 -138 b 227 -130 232 -135 230 -133 b 209 -109 221 -124 215 -116 b 161 -19 189 -82 173 -50 b 108 198 132 50 117 124 b 98 294 104 230 100 261 b 258 131 181 281 231 204 z "},"g":{"ha":529,"x_min":0,"x_max":0,"o":"m 555 330 b 433 170 530 269 477 218 b 430 167 432 169 431 168 b 426 241 429 191 428 216 b 404 488 421 323 418 407 b 299 488 397 528 298 530 b 299 475 299 484 299 479 b 275 501 292 484 285 493 b 146 520 240 532 190 535 b -15 296 51 488 2 389 b -14 139 -25 244 -25 190 b 47 15 -5 95 9 43 b 240 127 135 -52 209 56 b 308 352 271 199 290 276 b 314 288 311 331 313 310 b 325 98 319 225 323 161 b 326 51 326 82 326 66 b 294 13 315 38 305 26 b 186 -141 254 -36 217 -86 b 120 -317 156 -194 127 -255 b 189 -441 115 -368 137 -424 b 338 -393 243 -459 303 -436 b 412 -212 379 -342 398 -275 b 432 -7 426 -145 430 -76 b 432 123 433 36 433 79 b 477 173 447 139 462 156 b 588 325 518 219 565 266 b 555 330 593 338 560 341 z m 240 239 b 200 129 229 201 216 164 b 136 37 186 98 168 53 b 104 52 118 28 113 37 b 86 103 96 68 91 85 b 73 226 76 143 72 185 b 140 435 75 300 97 375 b 222 485 158 460 187 499 b 285 406 253 472 271 438 b 240 239 269 351 256 294 z m 300 -274 b 233 -418 289 -321 278 -390 b 168 -383 206 -435 179 -406 b 164 -286 153 -353 156 -318 b 327 3 191 -178 257 -82 b 300 -274 327 -90 321 -183 z "},"h":{"ha":629,"x_min":0,"x_max":0,"o":"m 632 309 b 576 151 615 256 598 203 b 499 12 557 103 535 50 b 459 -13 489 0 475 -11 b 443 -5 449 -15 448 -13 b 429 67 428 19 429 40 b 440 226 429 120 434 173 b 440 392 445 281 450 337 b 377 499 432 434 419 480 b 182 365 284 540 212 437 b 134 160 155 299 143 230 b 129 180 132 167 131 173 b 100 352 118 237 108 294 b 98 368 100 357 99 362 b 272 616 169 440 231 524 b 321 783 296 669 314 725 b 290 938 327 834 325 896 b 152 962 255 979 200 982 b 34 832 96 938 58 887 b -19 442 -18 710 -28 572 b 15 216 -13 366 -2 290 b 84 -4 31 142 46 62 b 156 2 95 -24 155 -28 b 155 42 156 15 156 29 b 210 335 171 140 177 241 b 285 460 226 381 248 428 b 321 482 295 468 308 479 b 344 466 336 485 340 480 b 351 396 351 444 351 419 b 321 76 351 289 307 183 b 402 -34 326 30 355 -20 b 516 -12 443 -45 483 -39 b 602 129 557 22 581 81 b 664 304 627 186 645 245 b 632 309 668 318 635 321 z m 103 701 b 146 859 113 755 124 809 b 240 931 160 889 196 960 b 278 783 283 901 284 829 b 234 630 272 730 256 678 b 93 417 200 550 150 481 b 103 701 85 512 87 608 z "},"i":{"ha":265,"x_min":0,"x_max":0,"o":"m 279 353 b 211 162 261 288 239 223 b 165 76 197 132 183 103 b 131 39 158 66 144 42 b 125 42 123 37 130 35 b 118 60 122 46 119 55 b 103 261 100 124 102 195 b 121 476 105 334 116 404 b 16 484 123 515 25 518 b -4 215 -7 398 -10 303 b 84 13 1 148 11 40 b 229 116 156 -14 202 63 b 314 351 267 190 296 269 b 279 353 317 363 282 365 z m 70 555 b 95 566 79 555 90 557 b 110 623 104 582 107 604 b 76 642 112 637 86 642 b 43 623 64 642 46 637 b 45 566 40 604 38 584 b 70 555 48 557 62 555 z "},"j":{"ha":222,"x_min":0,"x_max":0,"o":"m 249 330 b 126 170 223 269 170 218 b 123 167 125 169 124 168 b 120 241 122 191 121 216 b 97 488 114 323 111 407 b -8 488 90 528 -9 530 b 7 288 -7 422 2 355 b 18 98 12 225 16 161 b 19 51 19 82 19 66 b -13 13 9 38 -2 26 b -121 -141 -52 -36 -90 -86 b -187 -317 -151 -194 -180 -255 b -118 -441 -192 -368 -170 -424 b 31 -393 -64 -459 -3 -436 b 105 -212 72 -342 91 -275 b 125 -7 119 -145 123 -76 b 125 123 126 36 126 79 b 170 173 140 139 155 156 b 281 325 211 219 258 266 b 249 330 287 338 253 341 z m -7 -274 b -74 -418 -18 -321 -29 -390 b -139 -383 -101 -435 -128 -406 b -143 -286 -154 -353 -151 -318 b 20 3 -116 -178 -50 -82 b -7 -274 20 -90 14 -183 z m 45 581 b 60 609 57 588 58 597 b 65 643 61 621 63 632 b 32 662 67 657 41 662 b -1 643 20 662 0 658 b 4 597 -2 628 -2 611 b 45 581 10 582 30 571 z "},"k":{"ha":538,"x_min":0,"x_max":0,"o":"m 557 344 b 498 195 544 292 521 242 b 414 68 476 149 451 103 b 293 61 378 35 330 26 b 221 167 261 91 243 131 b 424 422 335 201 437 295 b 301 492 417 485 358 511 b 178 360 242 471 204 414 b 136 238 160 321 146 280 b 134 228 136 235 135 232 b 114 352 126 269 120 310 b 112 368 113 357 113 362 b 286 616 183 440 245 524 b 335 783 310 669 328 725 b 304 938 341 834 339 896 b 166 962 269 979 213 982 b 48 832 110 938 72 887 b -5 442 -5 710 -14 572 b 28 216 1 366 12 290 b 97 -4 44 142 60 62 b 170 2 109 -24 169 -28 b 162 91 171 31 167 61 b 230 22 180 64 201 40 b 406 24 283 -10 354 -12 b 516 154 454 58 488 103 b 590 341 546 213 575 277 b 557 344 592 353 560 355 z m 117 701 b 160 859 127 755 138 809 b 253 931 173 889 210 960 b 292 783 297 901 298 829 b 248 630 286 730 270 678 b 107 417 214 550 164 481 b 117 701 99 512 101 608 z m 169 216 b 177 249 171 227 174 238 b 211 346 186 282 197 315 b 265 432 225 377 242 407 b 362 468 286 455 330 494 b 310 289 423 419 351 325 b 169 216 268 252 220 233 z "},"l":{"ha":386,"x_min":0,"x_max":0,"o":"m 398 343 b 327 144 381 274 358 208 b 276 59 313 114 297 85 b 192 11 260 38 222 -9 b 154 78 172 25 162 56 b 127 177 142 110 134 144 b 105 328 117 227 109 277 b 288 692 184 439 255 558 b 281 899 303 754 321 842 b 196 934 261 926 230 940 b 100 865 155 927 124 896 b 9 646 51 801 26 723 b -12 409 -8 569 -15 488 b 23 173 -9 330 3 250 b 147 -11 42 102 74 20 b 328 79 226 -44 289 17 b 430 338 378 157 409 248 b 398 343 434 352 401 354 z m 157 763 b 195 850 168 792 180 822 b 216 882 201 861 208 873 b 228 892 220 887 224 889 b 228 892 228 892 228 892 b 240 880 233 888 237 885 b 246 686 281 830 260 743 b 101 382 219 576 164 476 b 157 763 95 512 111 640 z "},"m":{"ha":867,"x_min":0,"x_max":0,"o":"m 869 309 b 814 151 852 256 835 203 b 737 12 794 103 772 50 b 697 -13 726 0 712 -11 b 680 -5 686 -15 685 -13 b 666 67 665 19 666 40 b 677 226 666 120 671 173 b 677 392 683 281 687 337 b 614 499 670 434 656 480 b 419 365 522 540 449 437 b 391 275 407 336 398 306 b 314 469 382 343 366 423 b 171 453 269 509 209 496 b 94 267 127 402 107 331 b 93 261 94 265 94 263 b 101 495 90 339 94 417 b 5 495 105 533 12 532 b -5 233 -12 409 -12 320 b 12 104 -2 190 4 146 b 55 -18 21 63 28 15 b 106 -14 65 -29 99 -30 b 109 74 116 12 113 44 b 128 246 114 131 118 189 b 160 364 135 286 145 326 b 218 456 173 397 190 433 b 276 457 235 470 262 482 b 289 404 284 441 286 421 b 298 283 296 364 298 323 b 297 154 299 240 299 197 b 290 19 295 110 285 62 b 388 12 294 -16 378 -21 b 399 91 396 37 399 64 b 447 335 411 173 420 257 b 522 460 463 381 485 428 b 558 482 532 468 545 479 b 581 466 573 485 577 480 b 588 396 588 444 588 419 b 558 76 588 289 544 183 b 639 -34 564 30 592 -20 b 753 -12 680 -45 720 -39 b 839 129 794 22 819 81 b 901 304 864 186 882 245 b 869 309 905 318 872 321 z "},"n":{"ha":601,"x_min":0,"x_max":0,"o":"m 604 309 b 549 151 587 256 570 203 b 472 12 529 103 507 50 b 432 -13 461 0 447 -11 b 415 -5 421 -15 420 -13 b 401 67 400 19 401 40 b 412 226 401 120 406 173 b 412 392 418 281 422 337 b 349 499 405 434 391 480 b 154 365 257 540 184 437 b 111 196 132 311 120 253 b 108 237 110 210 109 224 b 115 495 103 323 108 409 b 19 495 118 533 26 532 b 9 233 2 409 2 320 b 26 104 12 190 17 146 b 69 -18 35 63 42 15 b 119 -14 79 -29 113 -30 b 126 38 126 2 127 20 b 182 335 143 138 149 240 b 257 460 198 381 220 428 b 293 482 267 468 280 479 b 317 466 309 485 312 480 b 323 396 323 444 323 419 b 293 76 323 289 279 183 b 374 -34 299 30 327 -20 b 488 -12 415 -45 455 -39 b 574 129 530 22 554 81 b 636 304 599 186 617 245 b 604 309 640 318 607 321 z "},"o":{"ha":472,"x_min":0,"x_max":0,"o":"m 514 349 b 376 245 478 305 430 269 b 367 355 377 282 373 319 b 267 527 355 422 326 488 b 91 536 215 561 145 569 b 8 368 35 502 0 432 b 48 278 12 334 26 303 b 48 101 36 219 33 158 b 211 -11 67 29 135 -22 b 353 124 279 -1 329 63 b 375 219 365 154 372 186 b 545 339 441 244 502 286 b 514 349 556 353 522 359 z m 249 44 b 169 39 224 26 194 15 b 138 120 147 59 140 92 b 141 214 135 152 137 183 b 334 206 202 190 270 190 b 249 44 326 141 301 80 z m 336 231 b 201 222 293 218 247 214 b 145 241 182 226 163 232 b 166 340 151 274 159 307 b 122 369 170 360 133 368 b 66 348 106 370 72 367 b 60 326 64 341 62 334 b 75 476 38 376 46 432 b 223 520 109 528 167 549 b 319 387 275 493 304 441 b 336 231 332 341 340 286 z "},"p":{"ha":621,"x_min":0,"x_max":0,"o":"m 655 329 b 515 261 612 299 564 278 b 515 293 515 272 515 283 b 433 517 513 368 498 469 b 256 486 375 560 300 537 b 156 263 203 424 178 340 b 116 71 139 200 125 136 b 112 244 114 129 113 186 b 114 454 112 314 117 384 b 15 454 113 494 21 492 b 5 244 5 384 5 314 b 12 33 5 174 7 103 b 33 -171 17 -35 23 -103 b 81 -380 43 -242 54 -314 b 150 -375 90 -401 149 -401 b 141 -225 152 -325 147 -275 b 162 112 138 -112 143 1 b 216 325 174 184 192 256 b 323 503 237 388 265 466 b 372 511 338 514 354 520 b 398 484 383 505 392 495 b 420 383 416 455 417 417 b 416 228 425 332 424 279 b 226 122 348 205 273 178 b 198 36 206 99 191 67 b 262 -24 206 6 235 -14 b 461 56 340 -51 419 -10 b 514 234 495 109 510 172 b 682 314 573 255 631 277 b 655 329 701 326 667 337 z m 405 173 b 309 23 391 120 364 47 b 267 35 293 16 279 23 b 276 124 239 63 252 98 b 412 201 311 162 361 184 b 405 173 410 192 408 182 z "},"q":{"ha":631,"x_min":0,"x_max":0,"o":"m 668 341 b 416 97 601 243 504 174 b 385 71 408 90 396 81 b 388 255 383 132 385 193 b 405 488 392 332 404 410 b 298 488 406 531 306 528 b 296 479 297 485 297 482 b 275 501 290 487 283 494 b 146 520 240 532 190 535 b -15 296 51 488 2 389 b -14 139 -25 244 -25 190 b 47 15 -5 95 9 43 b 240 127 135 -52 209 56 b 272 215 252 156 263 185 b 274 30 270 153 270 92 b 304 -189 278 -44 287 -117 b 385 -368 318 -252 341 -319 b 545 -400 424 -412 492 -432 b 608 -239 598 -367 608 -296 b 544 -69 608 -177 589 -112 b 464 -20 521 -48 492 -32 b 397 39 443 -10 371 6 b 478 112 419 66 451 90 b 556 179 504 135 530 156 b 700 335 610 226 661 276 b 668 341 707 347 675 351 z m 240 239 b 200 129 229 201 216 164 b 136 37 186 98 168 53 b 104 52 118 28 113 37 b 86 103 96 68 91 85 b 73 226 76 143 72 185 b 140 435 75 300 97 375 b 222 485 158 460 187 499 b 285 406 253 472 271 438 b 240 239 269 351 256 294 z m 451 -43 b 516 -103 479 -57 500 -77 b 545 -283 550 -157 555 -222 b 512 -365 541 -311 534 -346 b 464 -349 491 -384 478 -368 b 409 -181 429 -303 418 -237 b 389 -16 399 -127 393 -71 b 451 -43 409 -26 431 -33 z "},"r":{"ha":519,"x_min":0,"x_max":0,"o":"m 556 333 b 457 275 524 312 493 287 b 416 273 442 270 425 267 b 395 304 406 281 400 292 b 379 413 380 337 384 377 b 340 517 374 448 364 489 b 192 488 293 569 226 537 b 115 284 150 429 130 354 b 108 245 113 271 110 258 b 115 495 104 329 108 412 b 19 495 118 533 26 532 b 9 233 2 409 2 320 b 26 104 12 190 17 146 b 69 -18 35 63 42 15 b 119 -14 78 -29 113 -30 b 124 4 122 -8 123 -2 b 125 8 125 5 126 7 b 125 12 125 10 125 11 b 125 54 127 25 126 39 b 147 245 127 118 135 182 b 216 459 160 319 179 393 b 245 501 224 474 233 489 b 266 518 250 506 258 515 b 279 504 277 521 277 514 b 279 395 285 469 280 431 b 292 291 279 362 275 321 b 378 241 308 261 346 246 b 583 318 458 231 519 276 b 556 333 601 330 567 340 z "},"s":{"ha":381,"x_min":0,"x_max":0,"o":"m 403 349 b 227 238 340 323 279 285 b 144 338 199 271 168 302 b 130 491 115 382 88 446 b 206 513 147 509 181 529 b 229 427 233 496 230 454 b 267 427 228 412 267 412 b 222 535 270 469 266 516 b 106 521 185 551 140 540 b 22 420 68 499 33 463 b 74 275 7 365 40 315 b 162 170 103 241 135 207 b 133 -72 112 107 37 -18 b 261 -75 171 -93 222 -95 b 315 57 308 -49 319 7 b 251 208 310 113 284 164 b 247 214 250 210 249 212 b 425 333 299 261 361 299 b 403 349 442 342 413 353 z m 205 -59 b 134 -27 178 -74 145 -52 b 168 119 111 21 143 78 b 182 140 172 126 177 133 b 227 0 208 98 226 52 b 205 -59 227 -21 225 -47 z "},"t":{"ha":403,"x_min":0,"x_max":0,"o":"m 700 785 b 567 741 693 739 602 743 b 441 742 525 739 483 740 b 307 753 396 745 352 749 b 288 899 315 804 316 859 b 203 934 268 926 237 940 b 106 865 162 927 130 896 b 51 763 83 834 65 799 b -67 745 11 761 -29 756 b -193 621 -119 732 -218 692 b -159 626 -189 609 -154 612 b -84 717 -176 673 -119 703 b 31 740 -47 731 -8 737 b 42 741 35 741 39 741 b 16 646 32 710 23 678 b -5 409 -1 569 -8 488 b 30 173 -2 330 10 250 b 154 -11 49 102 81 20 b 335 79 233 -44 296 17 b 437 338 385 157 415 248 b 405 343 441 352 408 354 b 334 144 388 274 364 208 b 283 59 320 114 303 85 b 199 11 267 38 229 -9 b 161 78 179 25 169 56 b 134 177 149 110 141 144 b 111 328 124 227 116 277 b 294 692 191 439 262 558 b 303 732 297 704 300 718 b 549 719 385 725 467 717 b 669 731 589 720 630 723 b 737 785 701 737 732 750 b 700 785 739 798 703 799 z m 253 686 b 108 382 226 576 171 476 b 157 742 102 505 117 626 b 264 735 193 741 228 738 b 253 686 261 718 257 701 z m 268 756 b 175 762 237 759 206 761 b 164 763 171 762 168 763 b 164 763 164 763 164 763 b 202 850 175 792 187 822 b 223 882 208 861 215 873 b 235 892 226 887 231 889 b 235 892 235 892 235 892 b 247 880 240 888 244 885 b 268 756 273 848 274 801 z "},"u":{"ha":656,"x_min":0,"x_max":0,"o":"m 667 355 b 598 154 647 287 627 219 b 549 61 584 122 569 90 b 504 25 539 48 523 25 b 479 49 490 24 484 37 b 444 253 452 112 447 185 b 451 486 440 331 450 408 b 343 490 451 528 355 528 b 340 485 342 488 341 487 b 284 237 324 402 306 319 b 248 122 273 198 262 159 b 176 36 239 100 210 24 b 133 114 152 44 139 93 b 116 234 122 153 118 194 b 131 484 111 318 126 400 b 29 484 133 525 38 522 b 11 248 13 408 7 326 b 78 44 15 178 27 97 b 235 31 121 -2 188 -11 b 320 226 287 77 303 163 b 333 277 325 243 329 260 b 340 206 335 253 337 230 b 454 0 351 133 372 26 b 614 106 533 -26 584 45 b 699 350 653 183 678 266 b 667 355 702 364 670 367 z "},"v":{"ha":544,"x_min":0,"x_max":0,"o":"m 593 361 b 421 319 548 322 482 309 b 427 378 423 338 425 358 b 421 491 429 415 428 453 b 387 580 416 521 408 556 b 250 567 347 626 283 612 b 245 400 214 518 215 451 b 381 304 274 350 325 318 b 349 183 373 262 362 221 b 275 52 333 135 310 89 b 209 23 259 36 233 9 b 170 85 189 35 178 64 b 133 476 125 208 121 346 b 27 476 137 517 34 518 b 33 239 14 398 17 316 b 124 35 47 166 72 90 b 281 16 168 -12 228 -22 b 386 173 332 54 365 114 b 417 298 400 213 410 255 b 418 297 418 297 418 297 b 623 351 489 290 569 302 b 593 361 636 363 602 369 z m 384 328 b 290 394 347 340 313 363 b 271 530 262 433 253 485 b 332 585 279 552 303 593 b 377 513 360 578 371 537 b 384 328 392 454 393 390 z "},"w":{"ha":853,"x_min":0,"x_max":0,"o":"m 900 361 b 728 319 855 322 789 309 b 734 378 731 338 733 358 b 729 491 737 415 735 453 b 694 580 723 521 715 556 b 557 567 655 626 590 612 b 552 400 522 518 522 451 b 688 304 582 350 633 318 b 657 183 681 262 670 221 b 583 52 641 135 618 89 b 517 23 567 36 541 9 b 478 85 496 35 486 64 b 441 476 432 208 428 346 b 334 476 445 517 341 518 b 329 427 332 460 330 444 b 284 237 315 363 301 300 b 248 122 273 198 262 159 b 176 36 239 100 210 24 b 133 114 152 44 139 93 b 116 234 122 153 118 194 b 131 484 111 318 126 400 b 29 484 133 525 38 522 b 11 248 13 408 7 326 b 78 44 15 178 27 97 b 235 31 121 -2 188 -11 b 320 226 287 77 303 163 b 333 279 325 244 329 261 b 340 239 335 265 337 252 b 431 35 355 166 380 90 b 588 16 475 -12 536 -22 b 693 173 640 54 673 114 b 725 298 707 213 718 255 b 726 297 725 297 725 297 b 931 351 796 290 877 302 b 900 361 944 363 910 369 z m 692 328 b 598 394 654 340 620 363 b 578 530 570 433 560 485 b 640 585 587 552 611 593 b 685 513 667 578 679 537 b 692 328 700 454 700 390 z "},"x":{"ha":501,"x_min":0,"x_max":0,"o":"m 525 349 b 472 227 516 305 494 265 b 409 125 453 192 432 158 b 219 35 374 76 281 -32 b 169 127 195 61 181 96 b 136 245 154 165 143 204 b 135 250 136 246 135 248 b 138 254 136 251 137 253 b 325 497 196 339 256 421 b 293 507 337 510 302 516 b 128 302 233 443 179 373 b 125 510 122 371 125 440 b 19 510 126 551 22 552 b 44 176 9 403 9 282 b 18 136 35 163 27 150 b -45 7 -8 95 -32 53 b -7 1 -50 -10 -11 -13 b 58 137 7 49 31 94 b 109 50 72 106 88 77 b 297 -5 154 -7 228 -32 b 445 119 360 20 406 64 b 511 230 469 155 491 192 b 559 349 531 267 551 306 b 525 349 561 361 528 362 z "},"y":{"ha":556,"x_min":0,"x_max":0,"o":"m 581 330 b 459 170 555 269 503 218 b 456 167 458 169 457 168 b 452 241 455 191 454 216 b 430 488 447 323 443 407 b 324 488 423 528 324 530 b 325 476 324 484 325 480 b 270 237 309 396 291 316 b 234 122 259 198 249 159 b 162 36 225 100 196 24 b 119 114 138 44 125 93 b 102 234 108 153 104 194 b 117 484 97 318 113 400 b 16 484 119 525 24 522 b -3 248 -1 408 -7 326 b 64 44 1 178 14 97 b 221 31 107 -2 174 -11 b 306 226 273 77 289 163 b 335 345 317 266 326 306 b 340 288 337 326 338 307 b 351 98 345 225 348 161 b 352 51 351 82 352 66 b 320 13 341 38 330 26 b 212 -141 280 -36 243 -86 b 146 -317 182 -194 152 -255 b 215 -441 141 -368 162 -424 b 364 -393 268 -459 329 -436 b 437 -212 405 -342 424 -275 b 458 -7 451 -145 456 -76 b 458 123 459 36 459 79 b 503 173 473 139 488 156 b 614 325 544 219 591 266 b 581 330 619 338 586 341 z m 326 -274 b 258 -418 315 -321 304 -390 b 194 -383 231 -435 205 -406 b 190 -286 179 -353 182 -318 b 352 3 217 -178 283 -82 b 326 -274 353 -90 347 -183 z "},"z":{"ha":544,"x_min":0,"x_max":0,"o":"m 558 326 b 359 155 495 265 427 210 b 289 177 336 166 313 173 b 411 407 355 238 405 319 b 333 549 415 466 391 526 b 151 509 270 574 203 546 b 0 334 88 463 41 400 b 35 329 -8 322 27 318 b 182 495 75 390 121 452 b 296 535 214 518 255 542 b 349 456 336 527 351 493 b 273 277 345 392 310 327 b 122 151 233 224 181 181 b 118 112 105 143 103 124 b 185 105 135 100 166 96 b 298 106 222 121 263 126 b 228 47 275 87 251 67 b 77 -105 174 0 122 -49 b 2 -286 35 -157 1 -217 b 86 -438 3 -348 27 -410 b 300 -401 157 -472 240 -447 b 480 -31 407 -320 490 -168 b 387 140 475 36 442 102 b 591 315 457 196 527 253 b 558 326 605 328 568 336 z m 226 -356 b 166 -394 208 -371 189 -386 b 114 -383 146 -401 131 -395 b 58 -216 65 -344 43 -276 b 152 -71 73 -159 113 -113 b 281 52 192 -27 236 13 b 323 88 295 64 309 76 b 375 -44 358 54 373 3 b 226 -356 378 -160 312 -280 z "},"{":{"ha":685,"x_min":0,"x_max":0,"o":"m 606 882 b 427 861 545 902 482 894 b 298 710 368 826 329 770 b 206 515 266 645 242 577 b 76 347 170 453 126 397 b 80 316 65 337 69 324 b 132 305 94 304 115 303 b 227 293 163 309 201 313 b 270 194 258 271 267 230 b 246 -95 276 97 247 1 b 281 -214 246 -139 251 -181 b 383 -263 306 -244 345 -258 b 571 -180 459 -274 527 -240 b 535 -171 580 -168 543 -161 b 365 -194 494 -224 408 -271 b 355 -77 346 -160 352 -114 b 372 66 359 -29 366 18 b 336 300 380 143 385 235 b 204 363 303 342 255 359 b 275 462 230 394 254 427 b 351 633 307 516 330 573 b 430 795 371 689 392 747 b 587 863 466 841 526 882 b 606 882 601 859 629 874 z "},"|":{"ha":274,"x_min":0,"x_max":0,"o":"m 203 753 b 188 878 202 791 207 844 b 135 878 177 897 142 890 b 134 878 134 878 134 878 b 118 758 121 841 120 797 b 108 627 115 714 111 671 b 94 358 102 537 99 448 b 81 92 90 269 85 181 b 69 -178 76 3 69 -88 b 177 -178 70 -220 172 -219 b 191 88 186 -90 188 -1 b 200 358 195 178 198 268 b 203 622 202 446 202 534 b 203 753 204 666 204 709 z "},"}":{"ha":632,"x_min":0,"x_max":0,"o":"m 555 375 b 394 761 442 471 437 629 b 272 886 374 821 336 869 b 75 865 207 904 136 892 b 98 848 57 857 87 843 b 204 872 132 863 167 872 b 293 845 234 872 272 869 b 321 766 313 823 318 793 b 332 673 326 735 328 704 b 429 376 345 568 362 458 b 334 269 386 356 352 319 b 318 28 305 191 317 109 b 277 -205 319 -50 307 -132 b 220 -269 266 -233 250 -259 b 116 -258 187 -280 148 -267 b 86 -263 108 -256 92 -254 b 94 -280 80 -271 85 -277 b 311 -294 163 -306 240 -328 b 419 -103 382 -260 405 -175 b 426 150 435 -18 425 65 b 444 260 426 188 430 225 b 470 305 451 276 459 291 b 490 323 476 311 483 318 b 493 329 497 328 505 328 b 551 340 512 327 535 327 b 555 375 562 349 568 364 z "},"":{"ha":531,"x_min":0,"x_max":0,"o":""},"":{"ha":250,"x_min":0,"x_max":0,"o":"m 178 64 b 176 274 178 134 177 204 b 173 484 176 344 175 414 b 161 694 171 554 172 625 b 100 694 157 719 104 718 b 80 484 86 625 84 554 b 73 274 76 414 74 344 b 71 64 72 204 71 134 b 73 -146 70 -6 67 -77 b 179 -146 77 -187 176 -188 b 178 64 183 -76 179 -6 z m 156 814 b 139 893 156 837 158 877 b 107 893 131 900 114 902 b 98 857 98 883 99 871 b 96 814 97 843 97 828 b 156 814 94 791 157 790 z "},"":{"ha":646,"x_min":0,"x_max":0,"o":"m 542 237 b 493 61 535 176 518 117 b 396 -88 470 8 439 -49 b 369 -108 388 -95 379 -102 b 386 365 375 50 376 207 b 417 791 395 507 406 649 b 471 733 443 787 462 755 b 479 519 497 665 488 590 b 518 519 477 505 516 504 b 513 740 527 592 537 669 b 420 826 496 788 464 818 b 431 958 423 870 427 914 b 394 958 432 972 395 973 b 383 828 390 915 387 872 b 376 828 381 828 378 828 b 109 554 239 811 147 674 b 90 108 63 412 58 254 b 178 -80 105 39 131 -27 b 309 -150 213 -119 259 -149 b 306 -230 308 -177 307 -203 b 363 -230 305 -252 361 -252 b 367 -139 364 -200 366 -169 b 506 11 432 -113 474 -49 b 576 237 543 81 566 158 b 542 237 577 249 544 250 z m 348 365 b 311 -116 337 205 320 45 b 257 -58 286 -107 269 -79 b 200 97 229 -10 211 43 b 201 477 175 221 175 353 b 340 747 222 574 266 678 b 379 780 351 757 364 770 b 348 365 367 641 357 503 z "},"":{"ha":557,"x_min":0,"x_max":0,"o":"m 459 -59 b 242 -50 391 -33 313 -30 b 249 116 252 5 250 63 b 229 347 247 194 240 270 b 255 352 238 349 246 350 b 245 372 279 357 264 376 b 225 368 239 371 232 370 b 217 417 223 385 220 401 b 177 701 200 511 170 605 b 210 805 180 737 190 775 b 323 847 235 841 280 869 b 391 748 360 829 380 786 b 398 584 406 695 406 638 b 431 584 396 571 429 570 b 375 844 445 667 443 782 b 152 822 311 903 209 880 b 89 553 80 751 74 648 b 119 341 99 482 110 412 b 78 327 105 336 91 332 b 95 310 56 319 82 305 b 122 319 104 313 113 316 b 131 219 125 285 129 252 b 134 28 135 155 136 92 b 96 -135 131 -29 126 -86 b 129 -174 83 -155 115 -170 b 200 -160 152 -179 182 -178 b 298 -106 227 -134 261 -115 b 402 -115 333 -98 366 -101 b 480 -103 425 -123 462 -122 b 459 -59 498 -84 478 -67 z "},"":{"ha":638,"x_min":0,"x_max":0,"o":"m 537 667 b 450 592 510 641 480 617 b 235 609 391 638 295 655 b 178 691 217 637 198 664 b 145 680 170 701 134 695 b 210 584 168 649 190 617 b 208 578 209 582 208 580 b 192 569 201 576 195 573 b 107 292 128 493 83 393 b 135 226 112 267 122 245 b 70 113 112 189 90 151 b 108 107 63 98 101 94 b 158 198 124 138 141 168 b 314 150 198 160 253 141 b 422 201 354 157 391 175 b 444 162 429 188 437 175 b 483 168 451 150 490 152 b 452 229 473 188 462 209 b 471 573 536 323 561 477 b 470 574 471 573 471 574 b 566 658 503 601 536 628 b 537 667 578 669 546 676 z m 398 548 b 396 545 398 547 397 546 b 320 469 370 521 344 496 b 277 544 306 494 291 519 b 265 575 285 558 278 569 b 398 548 310 609 366 592 z m 254 511 b 293 440 268 488 281 464 b 270 413 285 431 277 422 b 200 323 245 384 222 354 b 254 511 193 391 218 455 z m 304 208 b 210 279 258 191 225 236 b 308 408 240 323 273 367 b 310 410 308 409 309 409 b 383 272 334 364 358 318 b 304 208 363 244 336 220 z m 420 347 b 407 313 416 336 412 324 b 336 440 383 356 359 398 b 413 521 361 468 387 495 b 420 347 439 468 438 403 z "},"":{"ha":707,"x_min":0,"x_max":0,"o":"m 630 449 b 568 707 621 536 602 625 b 502 814 551 746 530 783 b 425 853 483 834 457 869 b 409 829 415 848 412 840 b 398 764 404 808 401 786 b 377 641 391 723 385 682 b 287 402 362 560 342 466 b 228 372 275 387 250 362 b 203 411 214 378 208 398 b 178 544 189 454 181 499 b 187 854 170 647 183 751 b 121 859 188 878 128 879 b 70 603 94 775 73 691 b 120 378 68 530 69 435 b 311 372 171 320 256 320 b 405 573 364 421 388 505 b 429 703 415 616 422 659 b 439 768 432 724 435 746 b 446 821 440 776 442 804 b 461 789 453 810 459 794 b 479 737 468 772 474 755 b 507 620 492 699 500 660 b 527 368 521 537 528 453 b 386 -59 526 222 512 39 b 339 -83 373 -69 356 -81 b 323 -76 334 -84 330 -81 b 269 40 290 -50 278 1 b 220 68 264 61 240 68 b 172 40 206 68 171 61 b 201 -77 176 1 179 -43 b 306 -146 225 -115 262 -139 b 532 -43 396 -160 478 -111 b 630 449 640 95 646 282 z "},"":{"ha":529,"x_min":0,"x_max":0,"o":"m 384 852 b 196 805 319 880 244 853 b 174 586 137 745 138 657 b 264 457 197 538 230 497 b 205 273 208 420 192 335 b 308 34 223 187 280 116 b 319 -90 321 -5 328 -49 b 257 -176 312 -125 295 -166 b 110 -29 170 -198 96 -111 b 73 -29 113 -15 76 -14 b 359 -198 40 -177 245 -268 b 423 3 427 -156 439 -70 b 362 143 411 53 388 99 b 421 264 401 167 417 217 b 420 358 423 296 427 326 b 376 454 412 393 395 425 b 262 640 336 516 287 570 b 296 828 243 695 236 794 b 401 798 334 850 379 833 b 422 688 421 766 423 725 b 459 688 421 674 458 673 b 384 852 461 753 450 823 z m 286 430 b 321 386 298 415 310 401 b 383 268 346 353 378 309 b 348 165 387 237 374 190 b 317 215 338 182 327 198 b 271 339 294 253 275 293 b 286 430 270 363 271 404 z "},"":{"ha":825,"x_min":0,"x_max":0,"o":"m 708 629 b 552 827 676 707 624 782 b 291 842 473 877 375 879 b 94 622 197 802 127 717 b 84 421 81 584 59 477 b 181 -60 56 255 58 64 b 461 -115 255 -133 364 -151 b 669 64 550 -83 620 -16 b 708 629 770 231 780 449 z m 590 114 b 447 -45 557 51 509 -8 b 346 -73 418 -63 382 -79 b 270 -27 316 -68 290 -48 b 177 210 209 35 184 126 b 200 494 169 305 184 401 b 149 523 204 516 163 523 b 112 513 136 523 122 520 b 112 526 112 519 112 523 b 144 646 115 567 126 608 b 308 821 177 719 233 787 b 529 784 384 855 469 841 b 634 596 582 734 613 665 b 590 114 681 439 667 260 z m 577 316 b 478 115 557 247 530 166 b 379 87 454 90 413 68 b 332 162 353 102 339 134 b 335 400 313 237 321 324 b 413 584 347 465 370 533 b 451 610 422 595 437 617 b 479 563 467 602 475 579 b 487 423 492 518 492 469 b 524 423 485 409 522 408 b 518 576 531 474 529 525 b 443 648 508 615 486 645 b 247 478 340 657 274 566 b 235 168 218 381 203 266 b 444 59 263 83 358 25 b 610 310 545 99 584 215 b 577 316 614 325 580 327 z "},"":{"ha":0,"x_min":0,"x_max":0,"o":""},"":{"ha":825,"x_min":0,"x_max":0,"o":"m 708 629 b 552 827 676 707 624 782 b 291 842 473 877 375 879 b 94 622 197 802 127 717 b 84 421 81 584 59 477 b 181 -60 56 255 58 64 b 461 -115 255 -133 364 -151 b 669 64 550 -83 620 -16 b 708 629 770 231 780 449 z m 590 114 b 447 -45 557 51 509 -8 b 346 -73 418 -63 382 -79 b 270 -27 316 -68 290 -48 b 177 210 209 35 184 126 b 200 494 169 305 184 401 b 149 523 204 516 163 523 b 112 513 136 523 122 520 b 112 526 112 519 112 523 b 144 646 115 567 126 608 b 308 821 177 719 233 787 b 529 784 384 855 469 841 b 634 596 582 734 613 665 b 590 114 681 439 667 260 z m 481 262 b 407 280 460 258 413 253 b 429 354 402 304 418 333 b 507 495 455 401 491 443 b 507 564 514 518 522 543 b 451 589 495 582 472 588 b 376 566 424 590 397 581 b 362 643 375 592 372 619 b 319 643 357 656 324 656 b 291 519 303 604 298 560 b 270 384 283 474 275 429 b 251 118 260 295 252 207 b 356 118 251 77 354 77 b 361 236 358 157 359 197 b 501 219 398 211 462 215 b 528 247 514 221 535 230 b 481 262 522 262 494 265 z m 367 367 b 368 384 368 373 368 378 b 375 514 371 427 373 471 b 375 520 375 516 375 518 b 435 566 388 542 409 561 b 468 501 480 574 483 532 b 374 376 445 455 404 418 b 367 367 372 374 370 371 z "},"":{"ha":543,"x_min":0,"x_max":0,"o":"m 416 834 b 387 752 396 811 393 781 b 374 673 383 725 378 699 b 363 637 371 661 367 649 b 329 545 353 606 342 575 b 284 470 318 519 305 490 b 182 584 230 418 189 547 b 179 600 181 589 180 595 b 184 771 181 657 182 714 b 184 778 184 773 184 775 b 184 781 185 779 184 780 b 184 784 184 782 184 783 b 81 784 185 824 86 824 b 78 325 64 633 68 476 b 100 100 82 249 89 175 b 119 -12 105 63 111 25 b 155 -125 127 -50 135 -92 b 197 -125 162 -136 192 -140 b 202 -16 209 -90 204 -53 b 194 95 200 21 197 58 b 180 325 188 172 183 248 b 178 487 178 379 177 433 b 276 433 199 452 231 425 b 359 501 313 439 339 468 b 363 426 358 476 359 450 b 463 426 369 388 459 386 b 462 629 469 493 461 562 b 465 728 463 662 463 695 b 470 810 466 754 464 784 b 472 821 471 813 472 817 b 416 834 479 846 429 848 z "},"":{"ha":615,"x_min":0,"x_max":0,"o":"m 542 -27 b 533 96 540 14 536 55 b 516 337 527 176 520 256 b 512 577 512 417 510 497 b 526 822 514 659 524 741 b 433 822 527 860 441 856 b 425 785 430 810 427 798 b 125 699 319 824 198 788 b 78 526 85 651 54 588 b 215 422 100 468 157 434 b 256 417 229 419 242 417 b 262 311 258 381 260 346 b 285 88 268 237 275 162 b 332 -143 295 11 304 -70 b 400 -137 340 -164 399 -163 b 385 88 403 -62 391 13 b 366 316 378 164 371 240 b 363 426 364 353 363 390 b 411 439 379 430 396 434 b 416 337 412 405 414 371 b 436 96 420 256 426 176 b 451 -27 441 55 445 14 b 480 -145 457 -64 461 -112 b 539 -145 488 -160 532 -165 b 542 -27 551 -109 544 -64 z m 255 449 b 221 455 244 450 232 452 b 127 596 160 473 114 531 b 246 745 140 657 193 714 b 280 762 257 752 269 757 b 255 449 258 660 253 554 z m 411 577 b 411 476 410 544 410 510 b 363 463 395 472 379 467 b 382 765 363 564 370 664 b 381 771 382 767 382 769 b 421 760 395 769 408 765 b 411 577 413 699 412 638 z "},"":{"ha":550,"x_min":0,"x_max":0,"o":"m 446 169 b 423 156 436 174 405 165 b 433 29 459 138 442 59 b 379 -74 423 -9 405 -45 b 183 -87 330 -128 234 -148 b 184 160 122 -17 151 85 b 311 393 219 241 268 315 b 406 677 358 478 408 577 b 302 677 405 718 307 718 b 267 522 295 623 286 573 b 198 378 248 472 223 424 b 74 91 148 287 94 194 b 179 -144 57 -2 86 -106 b 306 -153 219 -161 264 -163 b 410 -88 349 -143 381 -120 b 473 37 442 -53 463 -9 b 446 169 481 75 491 148 z m 352 773 b 389 773 355 762 385 763 b 407 860 399 802 403 829 b 340 860 409 885 339 887 b 341 815 340 845 340 830 b 352 773 343 800 347 787 z "},"":{"ha":1156,"x_min":0,"x_max":0,"o":"m 1162 328 b 1051 97 1131 248 1095 171 b 982 -6 1030 62 1009 25 b 936 -45 969 -22 954 -36 b 905 -55 926 -50 916 -54 b 902 -56 903 -56 902 -56 b 891 -52 898 -55 894 -54 b 852 18 866 -41 856 -7 b 843 127 845 53 844 90 b 841 399 840 218 840 308 b 842 498 842 432 842 465 b 928 519 872 498 900 504 b 902 534 947 529 913 540 b 842 520 883 524 863 520 b 837 671 842 570 840 621 b 818 802 833 715 827 759 b 780 899 810 837 802 871 b 607 937 739 956 668 961 b 465 810 546 913 500 864 b 456 797 462 806 459 801 b 418 858 445 818 432 838 b 240 948 377 918 315 958 b 88 826 169 939 118 887 b 164 434 28 705 20 501 b 256 419 193 420 224 416 b 247 437 279 421 264 439 b 95 564 172 430 115 498 b 107 783 75 635 82 714 b 251 928 130 846 176 922 b 332 870 290 931 316 902 b 376 780 348 840 363 811 b 404 700 386 754 396 727 b 379 641 395 681 387 661 b 218 586 322 639 266 622 b 225 572 211 581 220 574 b 250 575 233 568 243 570 b 371 620 287 604 328 617 b 312 367 341 538 322 451 b 313 123 302 285 303 204 b 323 69 316 104 319 86 b 338 11 328 50 331 29 b 427 -21 351 -24 394 -30 b 546 164 501 0 531 98 b 559 403 563 242 565 323 b 531 597 554 468 546 533 b 601 572 555 589 578 581 b 734 519 641 556 687 534 b 726 211 730 416 726 314 b 749 0 727 142 725 66 b 899 -85 772 -61 835 -97 b 1041 22 964 -72 1006 -32 b 1150 217 1082 84 1118 150 b 1194 323 1166 252 1181 287 b 1162 328 1199 336 1166 340 z m 420 642 b 420 641 420 641 420 641 b 420 641 420 641 420 641 b 420 642 420 641 420 641 z m 376 16 b 376 16 373 15 370 15 z m 433 152 b 401 56 425 120 414 87 b 391 33 398 48 395 40 b 389 31 390 32 390 32 b 372 55 385 39 376 47 b 349 170 356 90 352 132 b 345 277 345 205 344 241 b 375 499 347 352 357 426 b 412 621 385 540 397 581 b 425 619 416 620 421 620 b 454 362 444 535 453 448 b 433 152 455 292 452 220 z m 738 690 b 734 545 738 642 736 593 b 713 553 727 547 720 550 b 528 622 652 576 592 604 b 524 623 527 622 525 623 b 474 761 511 671 495 717 b 549 867 494 800 518 836 b 726 898 586 904 692 974 b 737 811 737 872 737 840 b 738 690 738 771 739 731 z m 541 992 b 817 1080 629 1034 722 1063 b 808 1100 841 1084 826 1103 b 517 1005 707 1082 609 1050 b 541 992 500 997 530 987 z "},"":{"ha":1363,"x_min":0,"x_max":0,"o":"m 1368 349 b 1297 169 1358 286 1328 224 b 1158 19 1263 109 1218 56 b 942 36 1098 -18 987 -36 b 998 246 903 98 962 195 b 1182 393 1044 310 1109 364 b 1205 432 1198 399 1218 413 b 1140 450 1191 451 1160 453 b 947 545 1062 438 988 480 b 935 779 903 617 902 703 b 1098 943 966 849 1024 918 b 1204 929 1132 955 1177 957 b 1240 808 1235 896 1245 851 b 1170 677 1235 760 1213 703 b 1063 733 1120 646 1074 680 b 1024 733 1059 749 1021 747 b 1117 642 1034 686 1066 648 b 1238 698 1163 637 1210 660 b 1209 981 1296 777 1311 927 b 1029 982 1157 1009 1083 1000 b 883 887 973 964 922 930 b 822 791 858 858 837 826 b 745 936 813 846 797 908 b 572 920 691 966 622 950 b 455 800 524 891 486 849 b 363 918 432 845 402 888 b 183 931 311 957 240 960 b 69 780 125 901 89 840 b 170 431 28 661 37 487 b 256 419 198 419 226 416 b 247 437 278 421 263 439 b 98 553 176 431 120 491 b 99 758 76 618 80 693 b 209 916 116 819 150 887 b 308 904 243 933 281 932 b 355 825 328 883 341 851 b 403 700 374 784 390 743 b 380 641 395 680 387 661 b 218 586 322 639 266 623 b 224 572 211 581 219 574 b 249 575 232 568 243 570 b 373 620 287 604 329 617 b 363 592 369 611 366 601 b 310 152 315 451 294 300 b 329 48 313 117 318 82 b 376 -19 339 20 344 -10 b 526 97 452 -40 502 37 b 544 532 579 232 567 392 b 531 597 540 553 536 575 b 600 572 555 589 578 581 b 734 519 641 556 687 534 b 731 455 733 498 732 476 b 726 202 728 371 725 286 b 733 80 726 161 728 120 b 760 -15 737 48 743 13 b 854 -78 779 -45 816 -78 b 879 -58 865 -78 884 -73 b 874 -51 879 -56 876 -53 b 865 -41 872 -48 868 -44 b 864 -39 865 -40 864 -39 b 845 41 850 -15 847 14 b 840 272 840 117 839 195 b 843 498 840 347 842 423 b 857 499 847 498 852 498 b 1030 393 900 444 963 409 b 921 285 988 363 951 327 b 867 33 874 220 813 109 b 1109 -33 920 -42 1025 -58 b 1304 116 1187 -10 1259 49 b 1402 349 1350 184 1390 268 b 1368 349 1404 361 1371 362 z m 419 642 b 419 641 419 642 419 641 b 419 641 419 641 419 641 b 419 642 419 641 419 642 z m 401 52 b 387 28 398 44 392 36 b 376 43 383 33 379 38 b 350 148 360 75 355 113 b 349 354 342 216 342 285 b 411 621 358 444 379 534 b 424 620 415 620 420 620 b 450 440 437 560 445 500 b 401 52 460 308 451 176 z m 735 544 b 713 553 727 547 720 550 b 528 622 651 576 591 604 b 524 623 527 622 525 623 b 484 740 514 663 501 703 b 474 762 481 748 478 755 b 572 888 499 809 530 854 b 655 929 596 907 624 923 b 725 882 693 935 715 917 b 734 793 733 853 733 823 b 736 681 735 755 736 718 b 735 544 737 635 736 590 z m 827 -62 b 828 -63 828 -63 828 -63 b 827 -62 828 -63 827 -63 z "},"":{"ha":556,"x_min":0,"x_max":0,"o":"m 561 365 b 351 -76 529 207 459 45 b 329 -98 344 -83 337 -91 b 340 -9 332 -68 336 -39 b 306 -9 342 3 308 4 b 291 -118 300 -46 295 -82 b 253 -114 279 -121 266 -120 b 186 -34 221 -97 202 -65 b 116 208 146 39 128 126 b 159 709 93 372 99 552 b 280 893 185 777 224 845 b 356 901 306 916 327 923 b 409 792 389 876 406 832 b 389 650 413 744 405 695 b 318 541 375 610 356 564 b 224 593 273 513 224 540 b 240 645 225 611 230 629 b 304 677 252 664 280 688 b 330 677 311 673 323 671 b 330 692 336 681 338 688 b 191 571 255 726 173 649 b 271 509 199 533 233 511 b 378 558 313 506 352 525 b 439 693 409 596 428 645 b 451 850 452 744 462 798 b 227 944 429 956 318 985 b 42 708 133 902 75 801 b -8 399 7 609 -6 503 b 44 54 -10 283 4 163 b 246 -150 78 -35 142 -137 b 288 -149 261 -152 275 -151 b 281 -262 285 -186 283 -224 b 318 -262 281 -276 317 -276 b 325 -136 319 -220 322 -178 b 471 36 390 -102 437 -22 b 594 365 532 137 573 249 b 561 365 596 377 563 378 z "},"":{"ha":614,"x_min":0,"x_max":0,"o":"m 619 349 b 548 169 609 286 579 224 b 409 19 514 109 468 56 b 193 36 348 -18 238 -36 b 249 246 154 98 212 195 b 432 393 295 310 359 364 b 455 432 448 399 468 413 b 390 450 442 451 411 453 b 198 545 313 438 238 480 b 186 779 154 617 152 703 b 348 943 216 849 275 918 b 455 929 383 955 428 957 b 491 808 485 896 495 851 b 421 677 486 760 463 703 b 313 733 370 646 324 680 b 274 733 310 749 271 747 b 367 642 284 686 317 648 b 488 698 414 637 461 660 b 460 981 547 777 562 927 b 279 982 407 1009 334 1000 b 133 887 224 964 172 930 b 68 564 56 800 23 673 b 281 393 107 473 189 414 b 171 285 239 363 202 327 b 117 33 124 220 64 109 b 359 -33 171 -42 275 -58 b 555 116 437 -10 510 49 b 652 349 600 184 641 268 b 619 349 654 361 621 362 z m 263 1040 b 464 1094 329 1062 396 1080 b 454 1115 489 1099 473 1118 b 246 1058 383 1100 314 1081 b 263 1040 224 1050 250 1036 z "},"":{"ha":701,"x_min":0,"x_max":0,"o":"m 702 341 b 616 108 680 261 653 181 b 552 15 599 74 579 42 b 502 -19 538 1 521 -13 b 470 5 482 -25 475 -13 b 472 118 460 40 470 82 b 481 248 474 161 478 204 b 503 513 488 336 498 424 b 491 776 509 600 508 690 b 375 948 476 850 448 916 b 190 947 317 974 247 976 b 76 788 128 916 87 855 b 144 571 64 712 87 624 b 338 550 196 524 278 511 b 313 565 355 562 323 572 b 140 634 245 522 172 572 b 134 844 107 698 103 779 b 299 943 161 902 230 960 b 392 789 369 926 387 851 b 371 304 407 627 387 465 b 362 183 367 263 364 223 b 364 67 361 145 357 104 b 498 -49 377 4 427 -59 b 649 91 569 -39 618 33 b 739 335 689 168 716 252 b 702 341 744 352 706 354 z m 236 1025 b 448 1073 308 1037 378 1053 b 455 1087 455 1075 459 1081 b 429 1091 450 1094 436 1093 b 227 1044 362 1072 295 1057 b 236 1025 204 1039 219 1022 z "},"":{"ha":1183,"x_min":0,"x_max":0,"o":"m 1184 341 b 1092 99 1161 258 1132 175 b 1016 7 1074 63 1052 26 b 935 25 985 -10 949 -11 b 919 117 924 53 921 87 b 920 252 917 162 918 207 b 934 522 924 342 932 431 b 926 656 934 567 931 612 b 898 774 922 695 915 739 b 741 921 867 838 812 901 b 566 861 673 939 613 908 b 520 810 550 845 535 828 b 400 941 490 862 452 911 b 78 794 272 1013 102 943 b 139 619 68 732 85 657 b 324 636 196 578 273 594 b 391 717 352 658 372 687 b 358 723 398 729 365 733 b 181 624 323 668 255 589 b 117 798 120 654 105 738 b 254 940 130 864 182 936 b 393 851 315 943 361 899 b 455 721 419 811 439 766 b 429 678 446 707 437 693 b 312 236 354 546 305 389 b 330 120 314 197 319 158 b 373 25 339 89 352 50 b 561 65 428 -38 521 11 b 633 292 610 130 628 211 b 618 540 639 375 634 459 b 536 782 602 624 575 706 b 536 782 536 782 536 782 b 690 907 573 830 625 900 b 822 768 771 915 815 837 b 829 545 830 693 834 620 b 810 303 824 464 816 384 b 810 83 804 232 795 153 b 852 2 816 51 828 25 b 938 -39 877 -20 905 -35 b 1187 225 1086 -55 1147 113 b 1221 335 1200 261 1211 298 b 1184 341 1226 352 1187 355 z m 513 234 b 487 131 507 199 499 165 b 446 48 477 103 467 71 b 419 43 435 36 433 33 b 388 85 405 54 395 69 b 354 191 371 118 360 154 b 360 401 341 260 347 332 b 468 684 379 500 416 596 b 473 670 470 679 471 674 b 517 451 496 599 511 525 b 513 234 524 379 523 305 z m 491 1005 b 551 1066 501 1033 521 1057 b 652 1063 583 1076 619 1068 b 805 1082 703 1054 760 1050 b 779 1096 822 1094 790 1104 b 584 1091 722 1055 648 1092 b 459 1010 529 1090 477 1065 b 491 1005 454 996 487 993 z "},"":{"ha":785,"x_min":0,"x_max":0,"o":"m 789 385 b 635 305 748 343 690 324 b 626 521 642 378 638 452 b 429 881 602 654 542 799 b 242 927 376 919 307 938 b 97 833 181 917 132 884 b 73 474 26 730 29 587 b 107 407 83 451 94 428 b 84 290 93 367 86 325 b 230 -37 77 173 122 24 b 445 -50 294 -73 377 -81 b 583 101 509 -22 554 38 b 632 277 608 156 624 216 b 740 320 669 290 706 304 b 821 374 770 333 798 350 b 789 385 834 387 798 394 z m 406 21 b 168 107 321 -56 215 28 b 136 367 122 183 114 280 b 329 248 185 308 251 265 b 514 247 389 236 452 237 b 406 21 498 163 468 78 z m 524 328 b 518 272 522 310 520 291 b 447 262 494 267 471 263 b 159 389 333 254 228 295 b 148 406 155 394 151 400 b 173 460 155 425 163 443 b 333 530 202 511 273 588 b 354 449 353 510 366 476 b 288 404 342 424 315 406 b 263 373 274 402 252 390 b 319 362 274 356 303 358 b 396 482 373 376 404 427 b 281 572 388 538 336 574 b 124 448 207 569 156 514 b 82 680 89 519 74 601 b 283 902 92 778 161 927 b 483 668 392 881 450 762 b 524 328 522 559 534 442 z m 225 1006 b 415 1068 288 1026 351 1047 b 396 1086 438 1075 411 1091 b 207 1023 333 1065 270 1044 b 225 1006 184 1016 211 1001 z "},"":{"ha":785,"x_min":0,"x_max":0,"o":"m 789 385 b 635 305 748 343 690 324 b 626 521 642 378 638 452 b 494 821 607 626 566 738 b 559 994 516 879 537 936 b 523 999 565 1009 528 1012 b 467 849 505 949 486 900 b 429 881 455 861 443 871 b 242 927 376 919 307 938 b 97 833 181 917 132 884 b 73 474 26 730 29 587 b 107 407 83 451 94 428 b 84 290 93 367 86 325 b 206 -22 78 182 116 47 b 186 -149 199 -64 192 -106 b 226 -149 185 -163 224 -165 b 243 -44 231 -114 236 -79 b 445 -50 305 -74 382 -79 b 583 101 509 -22 554 38 b 632 277 608 156 624 216 b 740 320 669 290 706 304 b 821 374 770 333 798 350 b 789 385 834 387 798 394 z m 82 680 b 283 902 92 778 161 927 b 438 771 354 888 403 833 b 358 547 410 697 384 622 b 281 572 337 564 310 573 b 124 448 207 569 156 514 b 82 680 89 519 74 601 z m 263 373 b 299 360 270 362 285 359 b 279 291 292 337 285 314 b 159 389 233 312 192 344 b 148 406 155 394 151 400 b 173 460 155 425 163 443 b 333 530 202 511 273 588 b 347 512 338 525 343 519 b 315 411 336 478 325 445 b 288 404 306 407 297 405 b 263 373 274 402 252 390 z m 234 114 b 219 44 229 90 224 67 b 168 107 198 63 181 85 b 136 367 122 183 114 280 b 272 266 172 323 218 288 b 234 114 258 215 246 165 z m 406 21 b 254 16 357 -23 301 -14 b 309 253 269 96 288 175 b 329 248 315 251 322 250 b 514 247 389 236 452 237 b 406 21 498 163 468 78 z m 524 328 b 517 272 522 310 520 291 b 447 262 494 267 471 263 b 315 277 401 259 357 264 b 342 371 324 308 333 340 b 396 482 381 392 403 436 b 386 513 394 493 391 503 b 460 727 410 584 434 656 b 483 668 469 707 477 687 b 524 328 522 559 534 442 z "},"":{"ha":1172,"x_min":0,"x_max":0,"o":"m 1178 345 b 1110 136 1163 273 1143 202 b 1047 38 1093 101 1073 67 b 999 5 1035 25 1018 8 b 955 40 977 1 963 22 b 927 155 938 75 932 117 b 915 282 921 197 917 240 b 919 551 911 372 912 461 b 954 857 926 653 940 755 b 843 857 959 898 850 900 b 838 826 841 847 840 836 b 706 290 785 649 763 465 b 653 162 692 246 675 203 b 559 47 631 119 602 71 b 495 47 540 38 512 30 b 477 92 484 58 480 77 b 470 215 468 132 469 175 b 500 504 473 312 486 408 b 510 788 513 598 524 694 b 376 1008 497 877 464 970 b 169 979 304 1039 229 1030 b 119 735 103 921 70 814 b 320 695 162 667 255 647 b 294 706 332 704 302 712 b 130 823 210 646 129 741 b 277 1006 131 904 192 997 b 368 948 322 1011 346 982 b 405 827 391 912 400 869 b 393 557 414 737 405 646 b 359 290 382 468 365 379 b 368 154 357 244 360 199 b 410 57 374 119 385 84 b 600 43 458 4 545 2 b 729 256 666 93 702 181 b 806 550 763 352 785 451 b 814 235 799 444 800 339 b 936 -8 826 149 847 31 b 1117 81 1017 -44 1078 17 b 1212 345 1168 161 1193 253 b 1178 345 1214 357 1181 358 z m 606 973 b 769 1011 660 989 714 1002 b 759 1032 794 1015 778 1035 b 589 989 701 1022 644 1009 b 606 973 568 982 593 969 z "},"":{"ha":967,"x_min":0,"x_max":0,"o":"m 977 346 b 789 291 915 327 853 308 b 764 501 799 362 792 436 b 599 642 733 572 674 624 b 499 647 566 649 533 651 b 531 706 511 666 521 686 b 565 867 554 753 580 814 b 323 894 534 977 392 941 b 249 830 296 876 271 854 b 237 846 245 835 241 841 b 118 938 206 887 169 925 b -139 758 -5 970 -110 872 b -104 605 -153 705 -148 644 b 26 582 -69 573 -19 563 b 5 597 42 590 15 602 b -97 646 -36 580 -79 609 b -92 787 -119 690 -110 744 b 126 899 -60 864 39 972 b 184 798 158 872 172 836 b 196 762 188 786 192 774 b 129 639 170 723 148 681 b 55 299 82 532 56 416 b 211 41 54 197 78 38 b 366 327 356 44 366 219 b 349 546 366 400 361 474 b 352 544 350 545 351 545 b 423 547 372 535 403 534 b 556 583 461 571 510 595 b 655 487 604 572 636 529 b 673 262 686 417 688 337 b 486 214 610 248 546 235 b 330 96 425 192 364 154 b 354 -67 299 43 292 -33 b 565 -58 419 -102 502 -88 b 717 86 629 -27 680 26 b 786 266 750 139 774 201 b 996 328 856 285 927 306 b 977 346 1020 335 992 351 z m 247 225 b 206 108 242 187 233 137 b 175 102 194 94 190 95 b 125 156 152 112 136 134 b 97 299 104 200 98 250 b 209 722 95 443 133 596 b 225 663 215 703 221 683 b 253 374 246 569 252 471 b 247 225 254 325 254 274 z m 440 716 b 341 588 411 670 378 628 b 316 687 334 621 326 655 b 266 803 303 728 287 766 b 280 819 270 808 275 814 b 395 906 312 855 350 888 b 507 865 439 924 506 930 b 481 787 507 837 495 812 b 440 716 467 764 454 740 z m 635 150 b 534 13 610 98 577 50 b 403 -36 502 -15 448 -49 b 385 108 340 -18 357 68 b 539 205 420 160 480 188 b 667 237 581 217 624 227 b 635 150 659 207 648 177 z "},"":{"ha":557,"x_min":0,"x_max":0,"o":"m 570 353 b 502 162 553 288 531 223 b 457 76 489 132 475 103 b 423 39 450 66 436 42 b 416 42 415 37 422 35 b 410 60 413 46 411 55 b 395 261 392 124 393 195 b 412 476 396 334 408 404 b 308 484 415 515 316 518 b 304 468 306 479 305 474 b 275 501 296 480 287 491 b 146 520 240 532 190 535 b -15 296 51 488 2 389 b -14 139 -25 244 -25 190 b 47 15 -5 95 9 43 b 240 127 135 -52 209 56 b 286 263 259 171 273 216 b 288 215 286 246 287 230 b 376 13 292 148 303 40 b 520 116 448 -14 493 63 b 606 351 558 190 587 269 b 570 353 608 363 573 365 z m 240 239 b 200 129 229 201 216 164 b 136 37 186 98 168 53 b 104 52 118 28 113 37 b 86 103 96 68 91 85 b 73 226 76 143 72 185 b 140 435 75 300 97 375 b 222 485 158 460 187 499 b 285 406 253 472 271 438 b 240 239 269 351 256 294 z m 123 587 b 354 660 200 611 277 636 b 335 679 377 667 350 683 b 104 606 258 654 181 630 b 123 587 81 598 109 583 z "},"":{"ha":658,"x_min":0,"x_max":0,"o":"m 676 342 b 593 147 656 274 630 208 b 523 59 574 115 551 84 b 413 39 494 33 445 4 b 369 141 388 65 377 107 b 356 273 358 184 354 229 b 368 355 357 300 361 328 b 498 398 414 356 462 370 b 527 517 533 425 557 478 b 385 540 495 558 428 558 b 304 469 351 525 324 499 b 275 501 296 480 287 491 b 146 520 240 532 190 535 b -15 296 51 488 2 389 b -14 139 -25 244 -25 190 b 47 15 -5 95 9 43 b 240 127 135 -52 209 56 b 255 164 245 139 250 151 b 291 67 262 129 274 96 b 432 -10 320 16 372 -14 b 565 57 482 -7 530 23 b 656 194 604 96 633 145 b 709 339 679 240 698 289 b 676 342 712 350 680 352 z m 445 495 b 484 499 459 507 469 515 b 486 433 502 482 499 452 b 374 378 462 397 417 381 b 445 495 388 422 411 463 z m 274 411 b 246 260 257 365 247 313 b 240 239 244 253 242 246 b 200 129 229 201 216 164 b 136 37 186 98 168 53 b 104 52 118 28 113 37 b 86 103 96 68 91 85 b 73 226 76 143 72 185 b 140 435 75 300 97 375 b 222 485 158 460 188 499 b 278 421 249 474 265 448 b 274 411 277 418 276 414 z "},"":{"ha":389,"x_min":0,"x_max":0,"o":"m 412 348 b 309 123 384 270 351 194 b 202 18 289 88 246 28 b 215 72 205 36 210 54 b 180 78 220 87 185 90 b 165 23 174 60 169 42 b 142 44 157 28 149 34 b 106 149 121 72 112 115 b 102 270 99 189 99 230 b 168 469 108 339 128 411 b 205 504 175 480 191 502 b 247 475 223 506 239 488 b 249 340 272 434 259 383 b 288 337 246 327 284 324 b 294 479 300 383 313 433 b 199 546 278 520 243 545 b 0 345 92 547 21 438 b 34 49 -22 253 -25 128 b 157 -16 64 8 106 -16 b 152 -98 153 -43 151 -71 b 192 -98 152 -114 192 -114 b 197 -11 192 -69 193 -40 b 279 31 227 -4 256 12 b 372 166 321 67 347 118 b 447 343 401 223 426 282 b 412 348 452 358 416 361 z "},"":{"ha":406,"x_min":0,"x_max":0,"o":"m 424 342 b 341 147 403 274 377 208 b 270 59 321 115 299 84 b 160 39 242 33 193 4 b 116 141 136 65 124 107 b 103 273 105 184 101 229 b 115 355 105 300 108 328 b 245 398 161 356 209 370 b 274 517 280 425 304 478 b 132 540 243 558 176 558 b 22 411 78 517 42 465 b 38 67 -18 306 -19 166 b 179 -10 67 16 120 -14 b 313 57 229 -7 278 23 b 404 194 351 96 380 145 b 457 339 426 240 445 289 b 424 342 459 350 427 352 z m 192 495 b 232 499 206 507 216 515 b 233 433 249 482 246 452 b 122 378 210 397 164 381 b 192 495 136 422 158 463 z m 106 596 b 131 596 112 590 124 593 b 289 649 182 618 235 636 b 279 670 314 654 298 674 b 106 610 219 656 161 636 b 106 596 98 607 100 600 z "},"":{"ha":276,"x_min":0,"x_max":0,"o":"m 290 353 b 222 162 272 288 250 223 b 176 76 208 132 194 103 b 142 39 169 66 155 42 b 136 42 135 37 141 35 b 129 60 133 46 131 55 b 114 261 111 124 113 195 b 132 476 116 334 127 404 b 27 484 134 515 36 518 b 7 215 4 398 2 303 b 96 13 12 148 22 40 b 240 116 167 -14 213 63 b 325 351 278 190 307 269 b 290 353 328 363 293 365 z m 17 570 b 186 623 73 588 129 606 b 167 642 209 630 182 646 b -1 587 111 625 55 606 b 17 570 -23 579 3 565 z "},"":{"ha":601,"x_min":0,"x_max":0,"o":"m 604 309 b 549 151 587 256 570 203 b 472 12 529 103 507 50 b 432 -13 461 0 447 -11 b 415 -5 421 -15 420 -13 b 401 67 400 19 401 40 b 412 226 401 120 406 173 b 412 392 418 281 422 337 b 349 499 405 434 391 480 b 154 365 257 540 184 437 b 111 196 132 310 120 253 b 108 237 110 210 109 224 b 115 495 103 323 108 409 b 19 495 118 533 26 532 b 9 233 2 409 2 320 b 26 104 12 190 17 146 b 69 -18 35 63 42 15 b 119 -14 79 -29 113 -30 b 126 38 126 2 127 20 b 182 335 143 138 149 240 b 257 460 198 381 220 428 b 293 482 267 468 280 479 b 317 466 309 485 312 480 b 323 396 323 444 323 419 b 293 76 323 289 279 183 b 374 -34 299 30 327 -20 b 488 -12 415 -45 455 -39 b 574 129 530 22 554 81 b 636 304 599 186 617 245 b 604 309 640 318 607 321 z m 109 599 b 138 611 119 592 147 600 b 161 633 141 619 155 629 b 203 638 175 642 187 644 b 257 614 221 631 237 619 b 357 644 294 606 330 619 b 323 655 370 657 333 665 b 283 634 312 645 299 635 b 238 650 267 632 252 643 b 175 663 218 660 197 666 b 109 599 157 661 75 621 z "},"":{"ha":486,"x_min":0,"x_max":0,"o":"m 528 349 b 390 245 492 305 443 269 b 381 355 391 282 387 319 b 281 527 369 422 340 488 b 105 536 229 561 159 569 b 22 368 49 502 14 432 b 62 278 26 334 40 303 b 62 101 50 219 47 158 b 225 -11 81 29 148 -22 b 367 124 293 -1 343 63 b 389 219 379 154 386 186 b 559 339 455 244 516 286 b 528 349 570 353 536 359 z m 263 44 b 182 39 237 26 208 15 b 152 120 161 59 154 92 b 155 214 149 152 150 183 b 348 206 216 190 284 190 b 263 44 340 141 315 80 z m 350 231 b 215 222 307 218 261 214 b 159 241 196 226 176 232 b 180 340 165 274 173 307 b 136 369 184 360 147 368 b 80 348 120 370 86 367 b 73 326 78 341 75 334 b 89 476 52 376 60 432 b 237 520 123 528 181 549 b 333 387 289 493 318 441 b 350 231 346 341 353 286 z m 125 613 b 291 657 180 628 236 642 b 298 671 299 659 302 665 b 272 675 293 678 279 677 b 107 631 217 660 162 646 b 100 617 99 629 96 623 b 125 613 105 610 119 611 z "},"":{"ha":494,"x_min":0,"x_max":0,"o":"m 384 332 b 235 325 334 331 285 328 b 88 311 186 322 136 322 b 88 281 65 306 62 284 b 235 279 137 275 186 278 b 384 284 285 280 334 281 b 426 308 398 285 425 289 b 384 332 426 326 397 332 z m 272 395 b 296 428 285 403 290 415 b 313 464 302 440 308 451 b 289 488 319 478 300 486 b 247 474 274 490 257 487 b 238 398 234 456 217 416 b 272 395 246 390 262 390 z m 253 208 b 227 191 243 207 229 203 b 226 152 226 178 225 165 b 286 147 227 129 278 128 b 285 196 292 163 291 180 b 253 208 281 207 262 208 z "},"":{"ha":486,"x_min":0,"x_max":0,"o":"m 528 349 b 390 245 492 305 443 269 b 381 355 391 282 387 319 b 322 490 372 404 354 453 b 352 640 338 539 352 588 b 317 640 352 654 317 654 b 294 518 316 598 306 557 b 281 527 289 521 285 524 b 105 536 229 561 159 569 b 22 368 49 502 14 432 b 62 278 26 334 40 303 b 62 101 50 219 47 158 b 145 1 74 56 105 19 b 109 -173 132 -57 120 -115 b 148 -173 107 -187 145 -188 b 180 -10 158 -119 168 -64 b 225 -11 194 -13 209 -13 b 367 124 293 -1 343 63 b 389 219 379 154 386 186 b 559 339 455 244 516 286 b 528 349 570 353 536 359 z m 136 369 b 80 348 120 370 86 367 b 73 326 78 341 75 334 b 89 476 52 376 60 432 b 237 520 123 528 181 549 b 283 484 255 511 270 499 b 266 437 277 469 272 453 b 204 234 244 370 223 303 b 201 225 203 231 202 228 b 159 241 186 229 172 234 b 180 340 165 274 173 307 b 136 369 184 360 147 368 z m 161 72 b 152 120 156 88 153 104 b 155 214 149 152 150 183 b 195 202 168 209 181 205 b 161 72 183 159 172 116 z m 263 44 b 190 33 240 28 214 17 b 231 196 202 88 216 142 b 348 206 270 193 310 197 b 263 44 340 141 315 80 z m 350 231 b 237 219 314 220 275 216 b 245 247 240 228 242 238 b 308 449 264 315 285 382 b 333 387 319 429 327 408 b 350 231 346 341 353 286 z "},"":{"ha":640,"x_min":0,"x_max":0,"o":"m 653 355 b 584 154 633 287 613 219 b 535 61 570 122 555 90 b 491 25 525 48 509 25 b 465 49 476 24 470 37 b 430 253 438 112 433 185 b 437 486 426 331 436 408 b 329 490 437 528 341 528 b 327 485 328 488 327 487 b 270 237 310 402 292 319 b 234 122 259 198 249 159 b 162 36 225 100 196 24 b 119 114 138 44 125 93 b 102 234 108 153 104 194 b 117 484 97 318 113 400 b 16 484 119 525 24 522 b -3 248 -1 408 -7 326 b 64 44 1 178 14 97 b 221 31 107 -2 174 -11 b 306 226 273 77 289 163 b 319 277 311 243 315 260 b 327 206 321 253 323 230 b 440 0 337 133 358 26 b 600 106 519 -26 570 45 b 685 350 639 183 664 266 b 653 355 689 364 656 367 z m 171 604 b 330 654 223 625 276 641 b 320 674 354 659 339 679 b 153 621 263 661 207 644 b 171 604 133 612 158 598 z "},"":{"ha":1128,"x_min":0,"x_max":0,"o":"m 1133 349 b 1062 169 1123 286 1093 224 b 923 19 1028 109 983 56 b 707 36 863 -18 752 -36 b 763 246 668 98 727 195 b 947 393 809 310 874 364 b 969 432 963 399 983 413 b 905 450 956 451 925 453 b 712 545 827 438 753 480 b 700 779 668 617 667 703 b 863 943 731 849 789 918 b 969 929 897 955 942 957 b 1005 808 1000 896 1010 851 b 935 677 1000 760 978 703 b 827 733 885 646 838 680 b 789 733 824 749 786 747 b 882 642 799 686 831 648 b 1003 698 928 637 975 660 b 974 981 1061 777 1076 927 b 794 982 921 1009 848 1000 b 648 887 738 964 686 930 b 565 711 604 838 574 776 b 321 926 515 813 436 906 b 143 883 258 937 192 924 b 50 714 92 841 62 778 b 108 406 30 611 52 496 b 84 251 90 357 82 303 b 285 -59 89 124 152 -22 b 505 -11 362 -81 444 -65 b 611 179 560 38 592 110 b 632 486 638 279 646 384 b 795 393 675 439 733 407 b 685 285 753 363 716 327 b 632 33 639 220 578 109 b 874 -33 685 -42 790 -58 b 1069 116 952 -10 1024 49 b 1167 349 1115 184 1155 268 b 1133 349 1169 361 1136 362 z m 438 56 b 325 -11 411 20 373 -14 b 186 81 269 -7 218 38 b 136 366 127 162 112 270 b 144 357 139 363 141 360 b 490 245 226 261 367 218 b 516 254 499 247 508 250 b 438 56 503 183 480 113 z m 522 293 b 519 290 521 292 520 291 b 426 261 493 263 462 261 b 247 306 363 260 300 273 b 148 406 207 332 174 366 b 164 443 153 418 158 431 b 323 539 190 494 256 585 b 358 458 347 522 365 488 b 289 404 351 429 318 406 b 263 373 275 402 253 390 b 320 362 274 356 303 358 b 395 492 377 377 408 435 b 265 570 381 550 321 579 b 127 449 199 559 155 505 b 125 446 126 448 126 447 b 87 566 107 484 94 525 b 178 874 69 673 88 803 b 449 750 288 961 401 846 b 528 404 503 644 529 523 b 522 293 528 368 526 330 z "},"":{"ha":778,"x_min":0,"x_max":0,"o":"m 796 342 b 712 147 775 274 749 208 b 642 59 693 115 671 84 b 532 39 613 33 564 4 b 488 141 507 65 496 107 b 475 273 477 184 473 229 b 487 355 477 300 480 328 b 617 398 533 356 581 370 b 646 517 652 425 676 478 b 504 540 614 558 548 558 b 393 411 450 517 414 465 b 379 363 388 395 383 379 b 375 380 377 368 376 374 b 252 542 358 449 319 513 b 79 517 194 568 126 560 b 30 331 28 471 6 395 b 61 278 37 311 47 293 b 63 94 48 217 46 153 b 238 -8 85 20 162 -27 b 372 141 304 9 352 79 b 376 154 374 145 375 150 b 410 67 383 123 394 93 b 551 -10 439 16 491 -14 b 684 57 601 -7 649 23 b 775 194 723 96 752 145 b 828 339 798 240 817 289 b 796 342 831 350 799 352 z m 564 495 b 603 499 578 507 588 515 b 605 433 621 482 618 452 b 493 378 581 397 536 381 b 564 495 507 422 530 463 z m 323 154 b 282 59 321 121 305 86 b 215 24 263 40 240 24 b 155 90 181 23 162 62 b 153 214 146 131 147 173 b 183 205 163 211 173 207 b 241 197 202 200 222 198 b 299 198 260 196 280 201 b 323 154 319 195 323 172 z m 345 203 b 257 218 324 225 286 218 b 157 241 223 219 188 226 b 179 340 164 274 172 308 b 135 369 183 360 146 368 b 79 348 119 370 85 367 b 73 327 77 341 75 334 b 101 493 49 382 61 448 b 273 493 150 548 222 542 b 346 303 324 445 341 370 b 345 203 349 270 349 236 z "},"":{"ha":932,"x_min":0,"x_max":0,"o":"m 504 632 b 555 754 522 672 541 713 b 565 853 564 780 585 829 b 534 846 558 861 526 856 b 498 786 537 842 501 791 b 464 725 486 766 475 745 b 404 612 444 688 424 650 b 286 372 362 533 323 453 b 71 -121 210 210 134 46 b 171 -137 55 -163 156 -172 b 390 378 245 34 313 208 b 504 632 428 463 466 547 z m 194 542 b 342 650 266 533 326 582 b 256 772 357 713 321 766 b 134 713 216 775 155 753 b 102 690 118 710 104 702 b 194 542 85 620 118 551 z m 254 744 b 269 648 293 728 284 678 b 212 591 261 632 233 583 b 190 627 200 595 193 616 b 191 690 185 648 189 669 b 175 711 192 700 185 707 b 254 744 193 736 228 755 z m 522 169 b 390 157 478 201 424 191 b 352 140 374 155 358 149 b 319 14 329 102 318 58 b 359 -92 321 -23 329 -67 b 557 -40 423 -147 524 -112 b 522 169 586 23 582 124 z m 484 -29 b 443 -68 477 -40 458 -68 b 420 -26 432 -67 423 -38 b 440 126 409 25 420 78 b 426 153 446 139 439 148 b 449 165 433 158 440 162 b 506 123 480 174 499 150 b 484 -29 519 72 510 16 z m 804 159 b 708 166 776 176 739 177 b 671 143 697 161 682 154 b 632 124 654 142 638 136 b 665 -92 602 59 582 -58 b 849 -17 736 -121 817 -85 b 804 159 876 41 863 124 z m 771 -19 b 726 -53 760 -33 743 -48 b 719 -52 721 -54 724 -56 b 705 -32 712 -47 708 -40 b 723 110 690 12 706 69 b 711 137 729 122 722 131 b 718 142 714 139 717 141 b 757 150 730 148 743 152 b 801 95 785 146 797 120 b 771 -19 807 55 795 13 z "},"":{"ha":724,"x_min":0,"x_max":0,"o":"m 621 237 b 572 61 613 176 597 117 b 474 -88 548 8 517 -49 b 392 -117 453 -108 422 -126 b 335 -58 366 -109 348 -80 b 278 97 308 -10 289 43 b 260 292 265 160 259 226 b 353 300 290 296 322 299 b 353 323 378 301 378 324 b 260 317 323 322 291 320 b 263 363 261 332 262 347 b 381 369 302 366 341 369 b 381 391 404 369 404 391 b 265 385 342 390 303 389 b 280 477 268 416 273 447 b 418 747 301 574 344 678 b 488 791 436 764 461 789 b 549 733 518 793 540 758 b 557 519 575 665 566 590 b 596 519 555 505 594 504 b 591 740 606 592 616 669 b 454 828 569 802 521 835 b 187 554 318 811 225 674 b 151 370 168 495 156 432 b 84 356 129 366 106 361 b 94 335 60 350 75 331 b 149 347 112 340 131 343 b 148 297 148 330 148 313 b 78 275 124 291 101 284 b 97 257 55 266 84 253 b 148 270 114 261 131 265 b 168 108 150 215 157 161 b 257 -80 183 39 209 -27 b 438 -142 303 -132 368 -167 b 584 11 508 -117 551 -51 b 654 237 621 81 645 158 b 621 237 656 249 623 250 z "},"":{"ha":797,"x_min":0,"x_max":0,"o":"m 154 -11 b 335 79 233 -44 296 17 b 408 236 366 127 390 181 b 423 173 412 215 417 194 b 547 -11 441 102 474 20 b 728 79 625 -44 689 17 b 830 338 777 157 808 248 b 797 343 833 352 800 354 b 727 144 780 274 757 208 b 676 59 712 114 696 85 b 591 11 659 38 621 -9 b 554 78 571 25 561 56 b 527 177 542 110 533 144 b 504 328 517 227 509 277 b 687 692 584 439 655 558 b 694 723 689 702 692 712 b 917 720 768 719 843 718 b 1069 732 968 722 1019 724 b 1152 785 1100 737 1145 748 b 1115 785 1155 798 1118 799 b 1059 752 1111 761 1078 755 b 982 745 1034 748 1008 746 b 839 740 934 741 887 740 b 698 744 792 740 745 742 b 680 899 708 797 711 856 b 595 934 661 926 629 940 b 499 865 555 927 523 896 b 441 758 475 833 456 796 b 309 765 397 761 353 763 b 288 899 315 812 314 862 b 203 934 268 926 237 940 b 106 865 162 927 130 896 b 47 755 81 832 62 794 b -7 747 29 752 11 750 b -191 621 -54 738 -233 702 b -158 626 -185 609 -151 613 b 39 732 -191 692 -34 722 b 16 646 30 704 22 675 b -5 409 -1 569 -8 488 b 30 173 -2 330 10 250 b 154 -11 49 102 81 20 z m 157 742 b 266 743 193 743 229 744 b 253 686 262 723 257 703 b 108 382 226 576 171 476 b 157 742 102 505 117 626 z m 646 686 b 500 382 618 576 564 476 b 546 731 495 501 508 618 b 655 724 582 729 618 726 b 646 686 652 711 649 698 z m 557 763 b 595 850 568 792 580 822 b 615 882 601 861 607 873 b 627 892 619 887 623 889 b 628 892 627 892 628 892 b 640 880 632 888 636 885 b 659 745 668 845 667 793 b 555 751 624 747 589 749 b 553 752 554 751 553 751 b 557 763 554 755 555 759 z m 354 741 b 434 737 380 740 407 739 b 409 646 423 707 415 676 b 388 409 392 569 385 488 b 396 310 389 376 392 343 b 334 144 380 253 360 197 b 283 59 320 114 303 85 b 199 11 267 38 229 -9 b 161 78 179 25 169 56 b 134 177 149 110 141 144 b 111 328 124 227 116 277 b 294 692 191 439 262 558 b 305 742 298 708 302 725 b 354 741 321 742 338 741 z m 202 850 b 223 882 208 861 215 873 b 235 892 227 887 231 889 b 235 892 235 892 235 892 b 247 880 240 888 244 885 b 269 766 272 850 274 807 b 165 764 234 766 199 766 b 202 850 176 794 187 822 z "}}}
